<svg version="1.1" viewBox="0.0 0.0 225.74015748031496 100.0" fill="none" stroke="none" stroke-linecap="square" stroke-miterlimit="10" xmlns:xlink="http://www.w3.org/1999/xlink" xmlns="http://www.w3.org/2000/svg"><clipPath id="p.0"><path d="m0 0l225.74016 0l0 100.0l-225.74016 0l0 -100.0z" clip-rule="nonzero"/></clipPath><g clip-path="url(#p.0)"><path fill="#000000" fill-opacity="0.0" d="m0 0l225.74016 0l0 100.0l-225.74016 0z" fill-rule="evenodd"/><path fill="#ff0000" d="m44.72461 6.100107l0 0c24.587547 0 44.519684 19.932142 44.519684 44.519684l0 0c0 11.807354 -4.6904526 23.131107 -13.039513 31.480167c-8.34906 8.34906 -19.672817 13.03952 -31.480171 13.03952l0 0c-24.587542 0 -44.519684 -19.932144 -44.519684 -44.519688l0 0c0 -24.587543 19.932142 -44.519684 44.519684 -44.519684z" fill-rule="evenodd"/><path fill="#ff0000" d="m96.866104 36.196827l0 0c0 -7.6189213 6.1763535 -13.795277 13.795273 -13.795277l0 0c3.6587372 0 7.167618 1.4534264 9.754738 4.0405426c2.5871124 2.5871162 4.0405426 6.095997 4.0405426 9.754734l0 0c0 7.6189194 -6.176361 13.795273 -13.79528 13.795273l0 0c-7.6189194 0 -13.795273 -6.1763535 -13.795273 -13.795273z" fill-rule="evenodd"/><path stroke="#000000" stroke-width="4.0" stroke-linejoin="round" stroke-linecap="butt" d="m96.866104 36.196827l0 0c0 -7.6189213 6.1763535 -13.795277 13.795273 -13.795277l0 0c3.6587372 0 7.167618 1.4534264 9.754738 4.0405426c2.5871124 2.5871162 4.0405426 6.095997 4.0405426 9.754734l0 0c0 7.6189194 -6.176361 13.795273 -13.79528 13.795273l0 0c-7.6189194 0 -13.795273 -6.1763535 -13.795273 -13.795273z" fill-rule="evenodd"/><path fill="#ff0000" d="m181.98814 63.775566l0 0c0 -7.6189194 6.176361 -13.795277 13.795288 -13.795277l0 0c3.6587372 0 7.167618 1.4534264 9.75473 4.0405426c2.5871124 2.5871162 4.0405426 6.095997 4.0405426 9.754734l0 0c0 7.6189194 -6.176361 13.795273 -13.795273 13.795273l0 0c-7.618927 0 -13.795288 -6.1763535 -13.795288 -13.795273z" fill-rule="evenodd"/><path stroke="#000000" stroke-width="4.0" stroke-linejoin="round" stroke-linecap="butt" d="m181.98814 63.775566l0 0c0 -7.6189194 6.176361 -13.795277 13.795288 -13.795277l0 0c3.6587372 0 7.167618 1.4534264 9.75473 4.0405426c2.5871124 2.5871162 4.0405426 6.095997 4.0405426 9.754734l0 0c0 7.6189194 -6.176361 13.795273 -13.795273 13.795273l0 0c-7.618927 0 -13.795288 -6.1763535 -13.795288 -13.795273z" fill-rule="evenodd"/><path fill="#000000" fill-opacity="0.0" d="m103.50437 20.01178l0 60.88189l-73.921265 0l0 -60.88189z" fill-rule="evenodd"/><path fill="#ffffff" d="m40.54874 35.027405l29.437504 0l0.203125 -3.640625l5.4375 0l0 15.359375l-5.1875 0l-0.1875 -2.125q-0.203125 -1.84375 -2.046875 -1.84375l-14.078129 0l15.859379 13.046875l0.203125 -3.578125l5.4375 0l0 14.96875l-5.1875 0l-0.1875 -2.109375q-0.125 -1.21875 -1.796875 -2.5625l-11.140629 -9.078125l-18.625 11.328125l-0.1875 3.390625l-5.4375 0l0 -16.390625l5.1875 0l0.1875 1.984375q0.125 1.28125 1.03125 1.28125q0.375 0 1.015625 -0.3125l10.953125 -6.34375l-6.796875 -5.625l-5.953125 0l-0.1875 3.640625l-5.4375 0l0 -15.359375l5.1875 0l0.1875 2.109375q0.125 0.96875 0.546875 1.40625q0.421875 0.453125 1.5625 0.453125z" fill-rule="nonzero"/><path fill="#000000" fill-opacity="0.0" d="m41.93915 7.333363l0 94.58267l-19.46457 0l0 -94.58267z" fill-rule="evenodd"/><path fill="#ffffff" d="m21.70165 17.583363l6.125 0l0.046875 -0.75l1.125 0l0 3.1875l-1.078125 0l-0.03125 -0.4375q-0.046875 -0.390625 -0.4375 -0.390625l-2.921875 0l3.296875 2.71875l0.046875 -0.734375l1.125 0l0 3.109375l-1.078125 0l-0.03125 -0.4375q-0.03125 -0.25 -0.375 -0.53125l-2.328125 -1.890625l-3.875 2.359375l-0.03125 0.703125l-1.140625 0l0 -3.40625l1.078125 0l0.046875 0.40625q0.015625 0.265625 0.203125 0.265625q0.078125 0 0.21875 -0.0625l2.28125 -1.328125l-1.421875 -1.171875l-1.234375 0l-0.03125 0.765625l-1.140625 0l0 -3.203125l1.078125 0l0.046875 0.4375q0.015625 0.203125 0.09375 0.296875q0.09375 0.09375 0.34375 0.09375zm-0.59375 10.54007q0 1.453125 2.34375 1.453125q1.1875 0 1.796875 -0.328125q0.625 -0.3125 0.625 -1.09375q0 -0.765625 -0.59375 -1.125q-0.578125 -0.359375 -1.59375 -0.359375q-1.875 0 -2.359375 0.703125q-0.21875 0.296875 -0.21875 0.75zm2.390625 -3.0625q0.984375 0 1.703125 0.296875q0.734375 0.296875 1.125 0.78125q0.71875 0.953125 0.71875 2.09375q0 0.796875 -0.265625 1.34375q-0.25 0.5625 -0.59375 0.875q-0.34375 0.3125 -1.0 0.53125q-0.640625 0.21875 -1.515625 0.21875q-1.84375 0 -2.796875 -0.890625q-0.9375 -0.890625 -0.9375 -2.28125q0 -1.390625 0.890625 -2.1875q0.90625 -0.78125 2.671875 -0.78125zm2.28125 6.9591064l1.0625 0l0 2.25l-0.859375 0q0.484375 0.34375 0.765625 0.921875q0.296875 0.578125 0.296875 1.234375q0 1.015625 -0.578125 1.5625q-0.578125 0.5625 -1.75 0.5625l-3.46875 0l-0.046875 0.765625l-1.0625 0l0 -3.171875l1.015625 0l0.03125 0.4375q0.03125 0.203125 0.109375 0.28125q0.09375 0.09375 0.34375 0.09375l2.734375 0q0.734375 0 1.078125 -0.234375q0.359375 -0.21875 0.359375 -0.859375q0 -0.625 -0.40625 -1.0q-0.390625 -0.359375 -0.9375 -0.359375l-3.21875 0l-0.046875 0.75l-1.0625 0l0 -3.171875l1.015625 0l0.03125 0.4375q0.03125 0.203125 0.109375 0.296875q0.09375 0.09375 0.34375 0.09375l3.6875 0q0.390625 0 0.40625 -0.328125l0.046875 -0.5625zm-5.625 14.012466q-1.484375 -0.125 -2.171875 -0.859375q-0.703125 -0.734375 -0.703125 -2.296875q0 -1.546875 0.453125 -2.4375l1.84375 0l0.109375 1.265625l-0.640625 0q-0.359375 0 -0.484375 0.328125q-0.125 0.34375 -0.125 0.9375q0 0.84375 0.515625 1.1875q0.5 0.34375 1.4375 0.34375l0.734375 0q-0.75 -0.625 -0.75 -1.765625q0 -0.6875 0.265625 -1.21875q0.265625 -0.53125 0.71875 -0.8125q0.90625 -0.578125 2.140625 -0.578125q1.75 0 2.640625 0.9375q0.90625 0.953125 0.90625 2.53125q0 1.296875 -0.5 2.453125l-4.9375 0q-1.140625 0 -1.453125 -0.015625zm2.703125 -1.53125l2.859375 0q0.171875 -0.453125 0.171875 -1.0625q0 -0.8125 -0.609375 -1.25q-0.59375 -0.421875 -1.625 -0.421875q-2.109375 0 -2.109375 1.375q0 0.578125 0.359375 0.96875q0.359375 0.390625 0.953125 0.390625zm-1.21875 3.672348l3.6875 0q0.203125 0 0.296875 -0.078125q0.09375 -0.0625 0.09375 -0.25l0.046875 -0.5625l1.078125 0l0 2.25l-1.0 0q0.515625 0.234375 0.859375 0.734375q0.34375 0.515625 0.34375 1.171875q0 0.671875 -0.296875 1.265625l-1.984375 0l-0.09375 -1.234375l0.609375 0q0.265625 0 0.34375 -0.140625q0.0625 -0.140625 0.0625 -0.359375q0 -0.53125 -0.390625 -0.875q-0.375 -0.328125 -0.953125 -0.328125l-3.09375 0l-0.0625 1.15625l-1.046875 0l0 -3.578125l1.015625 0l0.03125 0.4375q0.03125 0.203125 0.109375 0.296875q0.09375 0.09375 0.34375 0.09375zm5.40625 8.6732025q0 1.0 -0.484375 1.578125q-0.484375 0.59375 -1.375 0.59375q-0.578125 0 -1.03125 -0.25q-0.4375 -0.25 -0.703125 -0.625q-0.25 -0.375 -0.40625 -0.90625q-0.265625 -0.890625 -0.265625 -2.015625q-0.703125 0.046875 -1.140625 0.4375q-0.4375 0.40625 -0.4375 1.234375q0 0.828125 0.59375 1.65625l-1.078125 0.5q-0.25 -0.265625 -0.5 -0.90625q-0.25 -0.625 -0.25 -1.4375q0 -1.625 0.890625 -2.390625q0.90625 -0.75 2.46875 -0.75q1.578125 0 2.640625 0.859375q1.078125 0.859375 1.078125 2.421875zm-3.0625 -0.609375q0.09375 0.5 0.390625 0.90625q0.3125 0.40625 0.71875 0.40625q0.8125 0 0.8125 -0.796875q0 -0.734375 -0.59375 -1.140625q-0.59375 -0.40625 -1.40625 -0.4375q0 0.578125 0.078125 1.0625zm-3.828125 9.653919q-1.484375 -0.125 -2.171875 -0.859375q-0.703125 -0.734375 -0.703125 -2.2968788q0 -1.546875 0.453125 -2.4375l1.84375 0l0.109375 1.265625l-0.640625 0q-0.359375 0 -0.484375 0.328125q-0.125 0.34375 -0.125 0.9375q0 0.84375 0.515625 1.1875038q0.5 0.34375 1.4375 0.34375l0.734375 0q-0.75 -0.6250038 -0.75 -1.7656288q0 -0.6875 0.265625 -1.21875q0.265625 -0.53125 0.71875 -0.8125q0.90625 -0.578125 2.140625 -0.578125q1.75 0 2.640625 0.9375q0.90625 0.953125 0.90625 2.53125q0 1.2968788 -0.5 2.4531288l-4.9375 0q-1.140625 0 -1.453125 -0.015625zm2.703125 -1.53125l2.859375 0q0.171875 -0.4531288 0.171875 -1.0625038q0 -0.8125 -0.609375 -1.25q-0.59375 -0.421875 -1.625 -0.421875q-2.109375 0 -2.109375 1.375q0 0.578125 0.359375 0.96875q0.359375 0.3906288 0.953125 0.3906288zm3.71875 8.828598l-4.953125 0q-0.21875 0 -0.296875 0.078125q-0.078125 0.078125 -0.09375 0.25l-0.03125 0.4375l-1.0625 0l0 -2.125l0.765625 0l0.015625 -0.03125q-0.953125 -0.671875 -0.953125 -1.828125q0 -1.359375 0.859375 -2.015625q0.875 -0.65625 2.375 -0.65625q1.8125 0 2.828125 0.875q1.015625 0.890625 1.015625 2.640625q0 1.140625 -0.46875 2.375zm-4.3125 -1.546875l3.453125 0q0.171875 -0.375 0.171875 -1.015625q0 -0.90625 -0.71875 -1.3125q-0.71875 -0.390625 -1.90625 -0.390625q-2.171875 0 -2.171875 1.390625q0 0.578125 0.359375 0.953125q0.359375 0.375 0.8125 0.375zm5.984375 4.3372345l0 0.859375l-1.40625 0l0 1.78125l-1.125 -0.140625l0 -1.640625l-3.5 0q-0.578125 0 -0.8125 0.21875q-0.234375 0.21875 -0.234375 0.65625q0 0.453125 0.28125 0.90625l-1.03125 0.390625q-0.46875 -0.65625 -0.46875 -1.6875q0 -0.59375 0.15625 -1.015625q0.15625 -0.40625 0.34375 -0.609375q0.1875 -0.203125 0.546875 -0.3125q0.359375 -0.109375 0.5625 -0.125q0.203125 0 0.609375 0l3.546875 0l0 -0.953125l0.984375 0.140625q0.046875 0.625 0.4375 0.9375q0.390625 0.328125 1.109375 0.59375zm-1.203125 6.8840637q0 1.0 -0.484375 1.578125q-0.484375 0.59375 -1.375 0.59375q-0.578125 0 -1.03125 -0.25q-0.4375 -0.25 -0.703125 -0.625q-0.25 -0.375 -0.40625 -0.90625q-0.265625 -0.890625 -0.265625 -2.015625q-0.703125 0.046875 -1.140625 0.4375q-0.4375 0.40625 -0.4375 1.234375q0 0.828125 0.59375 1.65625l-1.078125 0.5q-0.25 -0.265625 -0.5 -0.90625q-0.25 -0.625 -0.25 -1.4375q0 -1.625 0.890625 -2.390625q0.90625 -0.75 2.46875 -0.75q1.578125 0 2.640625 0.859375q1.078125 0.859375 1.078125 2.421875zm-3.0625 -0.609375q0.09375 0.5 0.390625 0.90625q0.3125 0.40625 0.71875 0.40625q0.8125 0 0.8125 -0.796875q0 -0.734375 -0.59375 -1.140625q-0.59375 -0.40625 -1.40625 -0.4375q0 0.578125 0.078125 1.0625z" fill-rule="nonzero"/><path fill="#000000" fill-opacity="0.0" d="m26.113064 22.63771l0 94.58268l-19.464567 0l0 -94.58268z" fill-rule="evenodd"/><path fill="#ffffff" d="m15.120563 33.23146l-1.890625 -0.453125q0.0625 -0.5 0.1875 -0.734375q0.078125 -0.15625 0.25 -0.15625q0.171875 0 0.3125 0.09375l1.328125 0.75l-0.1875 0.5zm0 1.328125l-1.890625 -0.453125q0.0625 -0.5 0.1875 -0.734375q0.078125 -0.15625 0.25 -0.15625q0.171875 0 0.3125 0.078125l1.328125 0.765625l-0.1875 0.5zm-1.015625 7.212967l-0.03125 -0.265625q-0.015625 -0.21875 -0.28125 -0.265625l-4.359375 -1.015625l0 -1.09375l3.5625 -0.84375l0 -0.015625l-3.5625 -0.8125l0 -1.140625l4.609375 -1.09375l0.03125 -0.453125l0.671875 0l0 1.984375l-0.640625 0l-0.03125 -0.265625q-0.015625 -0.25 -0.203125 -0.25q-0.03125 0 -0.0625 0l-3.09375 0.703125l0 0.03125l3.609375 0.828125l0 1.03125l-3.625 0.859375l0 0.015625l3.34375 0.6875l0.03125 -0.4375l0.671875 0l0 1.8125l-0.640625 0zm-0.53125 2.2986603q0 0.609375 -0.296875 0.953125q-0.28125 0.359375 -0.8125 0.359375q-0.34375 0 -0.625 -0.15625q-0.265625 -0.15625 -0.421875 -0.375q-0.140625 -0.21875 -0.234375 -0.546875q-0.171875 -0.53125 -0.171875 -1.203125q-0.421875 0.015625 -0.6875 0.25q-0.25 0.25 -0.25 0.75q0 0.5 0.34375 0.984375l-0.640625 0.3125q-0.140625 -0.15625 -0.296875 -0.546875q-0.15625 -0.375 -0.15625 -0.859375q0 -0.984375 0.53125 -1.4375q0.546875 -0.453125 1.484375 -0.453125q0.953125 0 1.59375 0.515625q0.640625 0.53125 0.640625 1.453125zm-1.828125 -0.359375q0.0625 0.296875 0.234375 0.546875q0.1875 0.25 0.421875 0.25q0.5 0 0.5 -0.484375q0 -0.453125 -0.359375 -0.703125q-0.359375 -0.234375 -0.859375 -0.25q0.015625 0.34375 0.0625 0.640625zm1.109375 5.925049q0.0625 -0.1875 0.0625 -0.46875q0 -0.265625 -0.125 -0.4375q-0.125 -0.15625 -0.3125 -0.15625q-0.171875 0 -0.265625 0.0625q-0.09375 0.0625 -0.171875 0.1875q-0.109375 0.203125 -0.1875 0.46875q-0.0625 0.28125 -0.109375 0.421875q-0.046875 0.140625 -0.15625 0.34375q-0.09375 0.203125 -0.21875 0.3125q-0.296875 0.28125 -0.765625 0.28125q-0.59375 0 -0.9375 -0.4375q-0.34375 -0.4375 -0.34375 -1.109375q0 -0.984375 0.25 -1.46875l1.109375 0l0.0625 0.71875l-0.390625 0q-0.34375 0 -0.34375 0.671875q0 0.671875 0.484375 0.671875q0.171875 0 0.28125 -0.125q0.125 -0.109375 0.15625 -0.234375q0.046875 -0.109375 0.078125 -0.265625q0.046875 -0.15625 0.078125 -0.296875q0.046875 -0.140625 0.109375 -0.3125q0.078125 -0.171875 0.203125 -0.390625q0.265625 -0.40625 0.875 -0.40625q0.625 0 0.953125 0.4375q0.34375 0.4375 0.34375 1.109375q0 0.671875 -0.3125 1.328125l-0.96875 0l-0.046875 -0.71875l0.328125 0q0.203125 0 0.28125 -0.1875zm-2.796875 5.668579l-0.625 0l0 -1.296875l0.515625 0q-0.625 -0.4375 -0.625 -1.296875q0 -1.234375 1.390625 -1.234375l1.84375 0q0.21875 0 0.234375 -0.203125l0.015625 -0.25l0.65625 0l0 1.40625l-2.546875 0q-0.421875 0 -0.640625 0.109375q-0.21875 0.125 -0.21875 0.5q0 0.375 0.234375 0.609375q0.234375 0.234375 0.5625 0.234375l1.6875 0q0.125 0 0.171875 -0.046875q0.0625 -0.046875 0.078125 -0.15625l0.015625 -0.265625l0.65625 0l0 1.421875l-3.140625 0q-0.125 0 -0.171875 0.03125q-0.046875 0.046875 -0.0625 0.15625l-0.03125 0.28125zm1.4375 1.4623108q-0.6875 0 -1.0625 0.25q-0.375 0.265625 -0.375 0.75q0 0.484375 0.34375 0.953125l-0.609375 0.34375q-0.46875 -0.578125 -0.46875 -1.4375q0 -0.84375 0.53125 -1.34375q0.546875 -0.484375 1.59375 -0.484375q1.0625 0 1.59375 0.5625q0.53125 0.5625 0.53125 1.265625q0 0.71875 -0.328125 1.328125l-1.03125 0l-0.0625 -0.734375l0.390625 0q0.203125 0 0.25 -0.15625q0.0625 -0.15625 0.0625 -0.328125q0 -0.96875 -1.359375 -0.96875zm-1.171875 3.259201l3.90625 0q0.125 0 0.171875 -0.046875q0.046875 -0.046875 0.0625 -0.15625l0.015625 -0.28125l0.65625 0l0 1.421875l-3.46875 0q0.046875 0.4375 0.28125 0.765625q0.234375 0.328125 0.609375 0.453125q0.078125 0.015625 0.125 0.015625q0.140625 0 0.140625 -0.140625l0.015625 -0.3125l0.625 0l0 1.65625l-0.65625 0l-0.015625 -0.375q-0.8125 -0.109375 -1.28125 -0.703125l-1.421875 0.78125l-0.015625 0.484375l-0.640625 0l0 -1.171875l1.65625 -0.90625q-0.0625 -0.265625 -0.109375 -0.546875l-0.890625 0l0 0.015625l-0.015625 0.453125l-0.640625 0l0 -1.90625l0.609375 0l0.015625 0.265625q0.015625 0.109375 0.0625 0.171875q0.0625 0.0625 0.203125 0.0625zm3.09375 3.932312l1.890625 0.46875q-0.0625 0.484375 -0.1875 0.734375q-0.078125 0.140625 -0.25 0.140625q-0.171875 0 -0.3125 -0.078125l-1.328125 -0.765625l0.1875 -0.5zm0 1.328125l1.890625 0.46875q-0.0625 0.484375 -0.1875 0.734375q-0.078125 0.140625 -0.25 0.140625q-0.171875 0 -0.3125 -0.078125l-1.328125 -0.765625l0.1875 -0.5z" fill-rule="nonzero"/></g></svg>