<svg version="1.1" viewBox="0.0 0.0 1181.249343832021 275.0" fill="none" stroke="none" stroke-linecap="square" stroke-miterlimit="10" xmlns:xlink="http://www.w3.org/1999/xlink" xmlns="http://www.w3.org/2000/svg"><clipPath id="p.0"><path d="m0 0l1181.2494 0l0 275.0l-1181.2494 0l0 -275.0z" clip-rule="nonzero"/></clipPath><g clip-path="url(#p.0)"><path fill="#000000" fill-opacity="0.0" d="m0 0l1181.2494 0l0 275.0l-1181.2494 0z" fill-rule="evenodd"/><path fill="#000000" fill-opacity="0.0" d="m869.23096 126.02362l-262.64563 -49.5748" fill-rule="evenodd"/><path stroke="#7f6000" stroke-width="16.0" stroke-linejoin="round" stroke-linecap="butt" d="m869.23096 126.02362l-262.64563 -49.5748" fill-rule="evenodd"/><path fill="#000000" fill-opacity="0.0" d="m866.60535 151.22598l-248.15747 45.354324" fill-rule="evenodd"/><path stroke="#7f6000" stroke-width="16.0" stroke-linejoin="round" stroke-linecap="butt" d="m866.60535 151.22598l-248.15747 45.354324" fill-rule="evenodd"/><path fill="#434343" d="m1172.811 119.301834l-188.15747 19.039368l188.15747 19.039383z" fill-rule="evenodd"/><path fill="#999999" d="m937.5591 128.35432l172.81885 0l0 19.968506l-172.81885 0z" fill-rule="evenodd"/><path fill="#999999" d="m657.5591 115.93964l296.0 0l0 44.7874l-296.0 0z" fill-rule="evenodd"/><path fill="#783f04" d="m-0.002624672 89.89501l302.4567 48.598427l-302.4567 48.59842z" fill-rule="evenodd"/><path fill="#783f04" d="m161.55934 115.93964l172.8189 0l0 44.7874l-172.8189 0z" fill-rule="evenodd"/><path fill="#999999" d="m230.5853 95.78215l250.58267 0l0 85.10237l-250.58267 0z" fill-rule="evenodd"/><path fill="#434343" d="m412.29135 137.5l0 0c0 -71.69265 58.118347 -129.81102 129.811 -129.81102l0 0c34.42804 0 67.445984 13.676479 91.79028 38.020767c24.344238 24.344288 38.020752 57.362232 38.020752 91.79025l0 0c0 71.69264 -58.11841 129.81104 -129.81104 129.81104l0 0c-71.69266 0 -129.811 -58.118393 -129.811 -129.81104z" fill-rule="evenodd"/><path fill="#000000" d="m702.23883 126.02362l70.99213 0l0 24.629929l-70.99213 0z" fill-rule="evenodd"/><path fill="#000000" d="m798.23883 126.02362l70.99213 0l0 24.629929l-70.99213 0z" fill-rule="evenodd"/><defs><linearGradient id="p.1" gradientUnits="userSpaceOnUse" gradientTransform="matrix(0.0 7.78045725470449 -7.78045725470449 0.0 0.0 0.0)" spreadMethod="pad" x1="16.6009175849779" y1="-121.48516556963922" x2="16.600888594683965" y2="-113.70470831498874"><stop offset="0.0" stop-color="#bfbfbf"/><stop offset="1.0" stop-color="#000000"/></linearGradient></defs><path fill="url(#p.1)" d="m945.2101 129.16273l0 19.149597l-60.53546 0l0 -19.149597z" fill-rule="evenodd"/><path fill="#000000" d="m304.46457 124.59843l102.834656 0l0 27.464561l-102.834656 0z" fill-rule="evenodd"/><path fill="#ffffff" d="m300.2047 132.99475l47.338593 0l0 10.67717l-47.338593 0z" fill-rule="evenodd"/><path fill="#b7b7b7" d="m472.90955 38.292244l0 0c7.9691467 -5.5292854 16.570038 -10.094534 25.619263 -13.598391l43.55902 112.50393z" fill-rule="evenodd"/><path fill="#b7b7b7" d="m441.94107 69.82163l0 0c5.4445496 -8.027988 11.825562 -15.38385 19.006989 -21.910694l81.13385 89.291336z" fill-rule="evenodd"/><path fill="#b7b7b7" d="m424.74725 108.92739c2.307953 -9.420631 5.7278137 -18.53746 10.186615 -27.156044l107.14957 55.433075z" fill-rule="evenodd"/><path fill="#b7b7b7" d="m422.9677 156.65518l0 0c-1.5264587 -9.578873 -1.9099121 -19.308945 -1.1422119 -28.982658l120.2677 9.543312z" fill-rule="evenodd"/><path fill="#b7b7b7" d="m439.49963 200.79759l0 0c-5.0786743 -8.264145 -9.159302 -17.105728 -12.154846 -26.336151l114.75592 -37.244095z" fill-rule="evenodd"/><path fill="#b7b7b7" d="m472.65668 235.94867c-7.9134216 -5.6092987 -15.135437 -12.14119 -21.511993 -19.456314l90.944916 -79.27559z" fill-rule="evenodd"/><path fill="#b7b7b7" d="m516.577 255.189l0 0c-9.473053 -2.0861053 -18.668304 -5.291214 -27.389648 -9.546967l52.91339 -108.425186z" fill-rule="evenodd"/><path fill="#b7b7b7" d="m563.8743 255.9396l0 0c-9.547852 1.7153625 -19.269287 2.290802 -28.957031 1.7140503l7.1810913 -120.44093z" fill-rule="evenodd"/><path fill="#b7b7b7" d="m608.0427 238.3184l0 0c-8.144531 5.2707214 -16.889465 9.557022 -26.048279 12.767426l-39.88977 -113.87401z" fill-rule="evenodd"/><path fill="#b7b7b7" d="m642.1406 204.75974l0 0c-5.4572754 8.020554 -11.85022 15.367264 -19.042358 21.883408l-80.992065 -89.433075z" fill-rule="evenodd"/><path fill="#b7b7b7" d="m660.91864 158.51201l0 0c-1.7452393 9.542572 -4.6185303 18.847565 -8.558594 27.716522l-110.25195 -49.007874z" fill-rule="evenodd"/><path fill="#b7b7b7" d="m660.30133 112.750946l0 0c1.9320679 9.505997 2.7288818 19.211426 2.373291 28.909317l-120.566895 -4.4409485z" fill-rule="evenodd"/><path fill="#b7b7b7" d="m641.9376 69.38275l0 0c5.4230957 8.042862 9.873779 16.704514 13.257019 25.800232l-113.08661 42.04724z" fill-rule="evenodd"/><path fill="#b7b7b7" d="m608.98175 36.746906l0 0c8.056091 5.4038773 15.444885 11.747524 22.008911 18.895668l-88.8819 81.590546z" fill-rule="evenodd"/><path fill="#b7b7b7" d="m564.6553 18.651289l0 0c9.523804 1.8465996 18.798157 4.818651 27.625244 8.852768l-50.173218 109.732285z" fill-rule="evenodd"/><path fill="#b7b7b7" d="m513.2876 19.987257l0 0c9.428162 -2.2790298 19.097473 -3.4308262 28.801636 -3.4308262l0 120.645676z" fill-rule="evenodd"/><path fill="#000000" d="m465.75592 137.5l0 0c0 -42.164986 34.181458 -76.34646 76.346436 -76.34646l0 0c20.248352 0 39.66736 8.043625 53.985107 22.361359c14.317749 14.317741 22.361328 33.736763 22.361328 53.9851l0 0c0 42.164978 -34.181458 76.34645 -76.346436 76.34645l0 0c-42.164978 0 -76.346436 -34.181473 -76.346436 -76.34645z" fill-rule="evenodd"/><path fill="#000000" d="m499.55194 137.5l0 0c0 -23.500366 19.050781 -42.551178 42.551147 -42.551178l0 0c11.285278 0 22.108337 4.483055 30.088257 12.462952c7.9798584 7.979889 12.462952 18.802948 12.462952 30.088226l0 0c0 23.500366 -19.050842 42.551178 -42.55121 42.551178l0 0c-23.500366 0 -42.551147 -19.050812 -42.551147 -42.551178z" fill-rule="evenodd"/><path stroke="#b7b7b7" stroke-width="8.0" stroke-linejoin="round" stroke-linecap="butt" d="m499.55194 137.5l0 0c0 -23.500366 19.050781 -42.551178 42.551147 -42.551178l0 0c11.285278 0 22.108337 4.483055 30.088257 12.462952c7.9798584 7.979889 12.462952 18.802948 12.462952 30.088226l0 0c0 23.500366 -19.050842 42.551178 -42.55121 42.551178l0 0c-23.500366 0 -42.551147 -19.050812 -42.551147 -42.551178z" fill-rule="evenodd"/></g></svg>