<svg version="1.1" viewBox="0.0 0.0 725.1102362204724 235.9265091863517" fill="none" stroke="none" stroke-linecap="square" stroke-miterlimit="10" xmlns:xlink="http://www.w3.org/1999/xlink" xmlns="http://www.w3.org/2000/svg"><clipPath id="p.0"><path d="m0 0l725.1102 0l0 235.92651l-725.1102 0l0 -235.92651z" clip-rule="nonzero"/></clipPath><g clip-path="url(#p.0)"><path fill="#000000" fill-opacity="0.0" d="m0 0l725.1102 0l0 235.92651l-725.1102 0z" fill-rule="evenodd"/><path fill="#000000" fill-opacity="0.0" d="m479.35565 116.217834l244.5669 -0.75590515" fill-rule="evenodd"/><path stroke="#5b0f00" stroke-width="16.0" stroke-linejoin="round" stroke-linecap="butt" d="m479.35565 116.217834l244.5669 -0.75590515" fill-rule="evenodd"/><path fill="#7f6000" d="m88.34646 105.70354l0 20.645416l-5.6300507 5.6300507l-82.71641 0l0 0l0 -31.90551l0 0l82.71641 0z" fill-rule="evenodd"/><path fill="#000000" fill-opacity="0.0" d="m86.11019 116.026245l115.59055 0" fill-rule="evenodd"/><path stroke="#7f6000" stroke-width="24.0" stroke-linejoin="round" stroke-linecap="butt" d="m86.11019 116.026245l115.59055 0" fill-rule="evenodd"/><path fill="#7f6000" d="m198.0643 91.83988l281.29135 0l0 48.755913l-281.29135 0z" fill-rule="evenodd"/><path fill="#000000" fill-opacity="0.0" d="m367.86615 116.026245l90.39371 0" fill-rule="evenodd"/><path stroke="#434343" stroke-width="24.0" stroke-linejoin="round" stroke-linecap="butt" d="m367.86615 116.026245l90.39371 0" fill-rule="evenodd"/><path fill="#000000" fill-opacity="0.0" d="m218.03674 116.026245l184.22049 0" fill-rule="evenodd"/><path stroke="#434343" stroke-width="12.0" stroke-linejoin="round" stroke-linecap="butt" d="m218.03674 116.026245l184.22049 0" fill-rule="evenodd"/><path fill="#000000" fill-opacity="0.0" d="m253.64305 124.026245l60.62993 0" fill-rule="evenodd"/><path stroke="#ffffff" stroke-width="12.0" stroke-linejoin="round" stroke-linecap="butt" d="m253.64305 124.026245l60.62993 0" fill-rule="evenodd"/><path fill="#000000" fill-opacity="0.0" d="m257.72964 155.41995l13.984253 -31.30709" fill-rule="evenodd"/><path stroke="#999999" stroke-width="8.0" stroke-linejoin="round" stroke-linecap="butt" d="m257.72964 155.41995l13.984253 -31.30709" fill-rule="evenodd"/><path fill="#b7b7b7" d="m250.46196 155.14447l0 0c0 -3.8616486 3.1304932 -6.9921265 6.9921417 -6.9921265l0 0c1.8544312 0 3.632904 0.7366638 4.9441833 2.047943c1.3112488 1.3112793 2.047943 3.0897522 2.047943 4.9441833l0 0c0 3.8616486 -3.1304932 6.9921265 -6.9921265 6.9921265l0 0c-3.8616486 0 -6.9921417 -3.130478 -6.9921417 -6.9921265z" fill-rule="evenodd"/><path fill="#000000" fill-opacity="0.0" d="m482.3649 135.4069l0 -39.811028" fill-rule="evenodd"/><path stroke="#999999" stroke-width="8.0" stroke-linejoin="round" stroke-linecap="butt" d="m482.3649 135.4069l0 -39.811028" fill-rule="evenodd"/><path fill="#990000" d="m232.22047 111.9662l98.51967 0l0 7.6850357l-98.51967 0z" fill-rule="evenodd"/><path stroke="#000000" stroke-width="1.0" stroke-linejoin="round" stroke-linecap="butt" d="m232.22047 111.9662l98.51967 0l0 7.6850357l-98.51967 0z" fill-rule="evenodd"/><path fill="#990000" d="m242.98177 111.09216l0 9.41732l-6.031494 6.031494l-6.031494 0l0 0l0 -21.480316l0 0l6.031494 0z" fill-rule="evenodd"/><path stroke="#000000" stroke-width="1.0" stroke-linejoin="round" stroke-linecap="butt" d="m242.98177 111.09216l0 9.41732l-6.031494 6.031494l-6.031494 0l0 0l0 -21.480316l0 0l6.031494 0z" fill-rule="evenodd"/><path fill="#990000" d="m322.9819 110.855644l0 9.889763l5.795288 5.795273l5.7952576 0l0 0l0 -21.480316l0 0l-5.7952576 0z" fill-rule="evenodd"/><path stroke="#000000" stroke-width="1.0" stroke-linejoin="round" stroke-linecap="butt" d="m322.9819 110.855644l0 9.889763l5.795288 5.795273l5.7952576 0l0 0l0 -21.480316l0 0l-5.7952576 0z" fill-rule="evenodd"/><path fill="#b7b7b7" d="m436.62994 108.45933l13.984253 0l0 13.984253l-13.984253 0z" fill-rule="evenodd"/><path fill="#b7b7b7" d="m712.91565 112.50356l9.070862 0l0 6.2362213l-9.070862 0z" fill-rule="evenodd"/></g></svg>