<svg version="1.1" viewBox="0.0 0.0 225.74015748031496 100.0" fill="none" stroke="none" stroke-linecap="square" stroke-miterlimit="10" xmlns:xlink="http://www.w3.org/1999/xlink" xmlns="http://www.w3.org/2000/svg"><clipPath id="p.0"><path d="m0 0l225.74016 0l0 100.0l-225.74016 0l0 -100.0z" clip-rule="nonzero"/></clipPath><g clip-path="url(#p.0)"><path fill="#000000" fill-opacity="0.0" d="m0 0l225.74016 0l0 100.0l-225.74016 0z" fill-rule="evenodd"/><path fill="#0000ff" d="m-0.17288505 48.86637l0 0c0 -24.587543 19.932142 -44.519684 44.519688 -44.519684l0 0c11.807354 0 23.131111 4.6904535 31.480171 13.039515c8.34906 8.34906 13.039513 19.672817 13.039513 31.480171l0 0c0 24.58754 -19.932144 44.519684 -44.519684 44.519684l0 0c-24.587545 0 -44.519688 -19.932144 -44.519688 -44.519684z" fill-rule="evenodd"/><path fill="#ffffff" d="m20.000343 36.868767l8.695538 -15.304462l18.608925 -8.695538l-6.4356956 12.349081z" fill-rule="evenodd"/><path fill="#ffffff" d="m12.695881 45.913387l0.52231026 5.391075l33.56431 18.086613l18.782154 -6.0866127l-34.433075 -13.740158l33.737534 -15.824146l-17.391075 -5.391077z" fill-rule="evenodd"/><path fill="#ffffff" d="m45.39142 48.52231l17.391079 -7.3044624l13.217846 7.3044624l-13.0446205 6.782154z" fill-rule="evenodd"/><path fill="#ffffff" d="m19.651262 60.17323l22.262468 12.695538l5.5643044 11.304459l-17.041996 -8.346451z" fill-rule="evenodd"/><path fill="#0000ff" d="m96.866104 36.196827l0 0c0 -7.6189213 6.1763535 -13.795277 13.795273 -13.795277l0 0c3.6587372 0 7.167618 1.4534264 9.754738 4.0405426c2.5871124 2.5871162 4.0405426 6.095997 4.0405426 9.754734l0 0c0 7.6189194 -6.176361 13.795273 -13.79528 13.795273l0 0c-7.6189194 0 -13.795273 -6.1763535 -13.795273 -13.795273z" fill-rule="evenodd"/><path stroke="#ffffff" stroke-width="4.0" stroke-linejoin="round" stroke-linecap="butt" d="m96.866104 36.196827l0 0c0 -7.6189213 6.1763535 -13.795277 13.795273 -13.795277l0 0c3.6587372 0 7.167618 1.4534264 9.754738 4.0405426c2.5871124 2.5871162 4.0405426 6.095997 4.0405426 9.754734l0 0c0 7.6189194 -6.176361 13.795273 -13.79528 13.795273l0 0c-7.6189194 0 -13.795273 -6.1763535 -13.795273 -13.795273z" fill-rule="evenodd"/><path fill="#0000ff" d="m181.98814 63.775566l0 0c0 -7.6189194 6.176361 -13.795277 13.795288 -13.795277l0 0c3.6587372 0 7.167618 1.4534264 9.75473 4.0405426c2.5871124 2.5871162 4.0405426 6.095997 4.0405426 9.754734l0 0c0 7.6189194 -6.176361 13.795273 -13.795273 13.795273l0 0c-7.618927 0 -13.795288 -6.1763535 -13.795288 -13.795273z" fill-rule="evenodd"/><path stroke="#ffffff" stroke-width="4.0" stroke-linejoin="round" stroke-linecap="butt" d="m181.98814 63.775566l0 0c0 -7.6189194 6.176361 -13.795277 13.795288 -13.795277l0 0c3.6587372 0 7.167618 1.4534264 9.75473 4.0405426c2.5871124 2.5871162 4.0405426 6.095997 4.0405426 9.754734l0 0c0 7.6189194 -6.176361 13.795273 -13.795273 13.795273l0 0c-7.618927 0 -13.795288 -6.1763535 -13.795288 -13.795273z" fill-rule="evenodd"/></g></svg>