<svg version="1.1" viewBox="0.0 0.0 693.4199475065617 233.5538057742782" fill="none" stroke="none" stroke-linecap="square" stroke-miterlimit="10" xmlns:xlink="http://www.w3.org/1999/xlink" xmlns="http://www.w3.org/2000/svg"><clipPath id="p.0"><path d="m0 0l693.4199 0l0 233.5538l-693.4199 0l0 -233.5538z" clip-rule="nonzero"/></clipPath><g clip-path="url(#p.0)"><path fill="#000000" fill-opacity="0.0" d="m0 0l693.4199 0l0 233.5538l-693.4199 0z" fill-rule="evenodd"/><path fill="#000000" fill-opacity="0.0" d="m440.34647 116.031494l115.590546 0" fill-rule="evenodd"/><path stroke="#5b0f00" stroke-width="16.0" stroke-linejoin="round" stroke-linecap="butt" d="m440.34647 116.031494l115.590546 0" fill-rule="evenodd"/><path fill="#660000" d="m398.38388 127.17337l53.684967 0l4.677246 4.6772614l0 23.385727l0 0l-53.684937 0l-4.6772766 -4.6772614l0 -23.385727z" fill-rule="evenodd"/><path stroke="#000000" stroke-width="1.0" stroke-linejoin="round" stroke-linecap="butt" d="m398.38388 127.17337l53.684967 0l4.677246 4.6772614l0 23.385727l0 0l-53.684937 0l-4.6772766 -4.6772614l0 -23.385727z" fill-rule="evenodd"/><path fill="#666666" d="m88.34646 102.46193l0 27.13913l-15.800514 15.800522l-72.545944 0l0 0l0 -58.740166l0 0l72.545944 0z" fill-rule="evenodd"/><path fill="#000000" fill-opacity="0.0" d="m88.34646 116.031494l115.59055 0" fill-rule="evenodd"/><path stroke="#000000" stroke-width="12.0" stroke-linejoin="round" stroke-linecap="butt" d="m88.34646 116.031494l115.59055 0" fill-rule="evenodd"/><path fill="#b7b7b7" d="m198.0643 92.39895l281.29135 0l0 48.755913l-281.29135 0z" fill-rule="evenodd"/><path fill="#000000" fill-opacity="0.0" d="m242.71129 99.779526l0 32.503937" fill-rule="evenodd"/><path stroke="#000000" stroke-width="12.0" stroke-linejoin="round" stroke-linecap="butt" d="m242.71129 99.779526l0 32.503937" fill-rule="evenodd"/><path fill="#000000" fill-opacity="0.0" d="m266.71127 99.779526l0 32.503937" fill-rule="evenodd"/><path stroke="#000000" stroke-width="12.0" stroke-linejoin="round" stroke-linecap="butt" d="m266.71127 99.779526l0 32.503937" fill-rule="evenodd"/><path fill="#000000" fill-opacity="0.0" d="m290.71127 99.779526l0 32.503937" fill-rule="evenodd"/><path stroke="#000000" stroke-width="12.0" stroke-linejoin="round" stroke-linecap="butt" d="m290.71127 99.779526l0 32.503937" fill-rule="evenodd"/><path fill="#000000" fill-opacity="0.0" d="m314.71127 99.779526l0 32.503937" fill-rule="evenodd"/><path stroke="#000000" stroke-width="12.0" stroke-linejoin="round" stroke-linecap="butt" d="m314.71127 99.779526l0 32.503937" fill-rule="evenodd"/><path fill="#000000" fill-opacity="0.0" d="m338.71127 99.779526l0 32.503937" fill-rule="evenodd"/><path stroke="#000000" stroke-width="12.0" stroke-linejoin="round" stroke-linecap="butt" d="m338.71127 99.779526l0 32.503937" fill-rule="evenodd"/><path fill="#000000" fill-opacity="0.0" d="m362.71127 99.779526l0 32.503937" fill-rule="evenodd"/><path stroke="#000000" stroke-width="12.0" stroke-linejoin="round" stroke-linecap="butt" d="m362.71127 99.779526l0 32.503937" fill-rule="evenodd"/><path fill="#000000" fill-opacity="0.0" d="m386.71127 99.779526l0 32.503937" fill-rule="evenodd"/><path stroke="#000000" stroke-width="12.0" stroke-linejoin="round" stroke-linecap="butt" d="m386.71127 99.779526l0 32.503937" fill-rule="evenodd"/><path fill="#000000" fill-opacity="0.0" d="m410.71127 99.779526l0 32.503937" fill-rule="evenodd"/><path stroke="#000000" stroke-width="12.0" stroke-linejoin="round" stroke-linecap="butt" d="m410.71127 99.779526l0 32.503937" fill-rule="evenodd"/><path fill="#000000" fill-opacity="0.0" d="m434.71127 99.779526l0 32.503937" fill-rule="evenodd"/><path stroke="#000000" stroke-width="12.0" stroke-linejoin="round" stroke-linecap="butt" d="m434.71127 99.779526l0 32.503937" fill-rule="evenodd"/><path fill="#000000" fill-opacity="0.0" d="m554.7113 103.968506l30.015747 0l0 24.125977l-30.015747 0z" fill-rule="evenodd"/><path stroke="#000000" stroke-width="4.0" stroke-linejoin="round" stroke-linecap="butt" d="m554.7113 103.968506l30.015747 0l0 24.125977l-30.015747 0z" fill-rule="evenodd"/></g></svg>