<svg version="1.1" viewBox="0.0 0.0 1000.0 600.0" fill="none" stroke="none" stroke-linecap="square" stroke-miterlimit="10" xmlns:xlink="http://www.w3.org/1999/xlink" xmlns="http://www.w3.org/2000/svg"><clipPath id="p.0"><path d="m0 0l1000.0 0l0 600.0l-1000.0 0l0 -600.0z" clip-rule="nonzero"/></clipPath><g clip-path="url(#p.0)"><path fill="#000000" fill-opacity="0.0" d="m0 0l1000.0 0l0 600.0l-1000.0 0z" fill-rule="evenodd"/><path fill="#9fc5e8" d="m-3.2624679 -5.2152233l1029.0078 0l0 612.5354l-1029.0078 0z" fill-rule="evenodd"/><path fill="#cfe2f3" fill-opacity="0.4367" d="m121.5075 10.611999l241.44882 101.51181l-101.51181 241.44882l-241.44882 -101.51181z" fill-rule="evenodd"/><path fill="#cfe2f3" fill-opacity="0.4367" d="m554.8705 10.611369l227.71655 129.4488l-129.44879 227.71655l-227.71655 -129.44882z" fill-rule="evenodd"/><path fill="#cfe2f3" fill-opacity="0.4367" d="m238.07874 332.51968l261.92126 0l0 261.92123l-261.92126 0z" fill-rule="evenodd"/><path fill="#cfe2f3" fill-opacity="0.4367" d="m685.17914 421.85034l97.48035 -243.08662l243.08661 97.48033l-97.48035 243.08658z" fill-rule="evenodd"/><path fill="#a9d7ff" fill-opacity="0.6203" d="m65.84582 299.01117l153.7323 -62.11023l62.110245 153.7323l-153.7323 62.11023z" fill-rule="evenodd"/><path fill="#a9d7ff" fill-opacity="0.6203" d="m454.28568 351.97546l164.85037 -17.763763l17.763794 164.85037l-164.85037 17.763794z" fill-rule="evenodd"/><path fill="#a9d7ff" fill-opacity="0.6203" d="m483.43265 71.951675l117.22836 117.22835l-117.22836 117.22833l-117.22833 -117.22833z" fill-rule="evenodd"/><path fill="#a9d7ff" fill-opacity="0.6203" d="m971.1151 430.7174l-96.50391 134.80316l-134.80316 -96.50394l96.50391 -134.80316z" fill-rule="evenodd"/><path fill="#71bdff" fill-opacity="0.7595" d="m201.33276 448.94443l75.811005 -30.614197l30.614197 75.811035l-75.811035 30.614166z" fill-rule="evenodd"/><path fill="#71bdff" fill-opacity="0.7595" d="m477.29886 210.06175l67.590546 -45.984253l45.984253 67.590546l-67.590576 45.98427z" fill-rule="evenodd"/><path fill="#71bdff" fill-opacity="0.7595" d="m488.8895 306.40872l75.37009 31.653534l-31.653564 75.37009l-75.370056 -31.653534z" fill-rule="evenodd"/><path fill="#71bdff" fill-opacity="0.7595" d="m438.84436 235.48611l-60.91339 54.48819l-54.48819 -60.91339l60.91339 -54.48819z" fill-rule="evenodd"/><path fill="#71bdff" fill-opacity="0.7595" d="m651.3134 492.97565l75.370056 31.653564l-31.653564 75.370056l-75.370056 -31.653564z" fill-rule="evenodd"/><path fill="#71bdff" fill-opacity="0.7595" d="m872.1372 59.085613l81.165344 -9.763779l9.763794 81.165344l-81.165344 9.763779z" fill-rule="evenodd"/><path fill="#71bdff" fill-opacity="0.7595" d="m813.0995 15.528413l55.24408 60.25197l-60.251953 55.244095l-55.24408 -60.25197z" fill-rule="evenodd"/><path fill="#71bdff" fill-opacity="0.7595" d="m315.99054 28.192955l81.19684 -9.354332l9.35434 81.19685l-81.19684 9.354324z" fill-rule="evenodd"/><path fill="#71bdff" fill-opacity="0.7595" d="m104.174965 45.21725l4.8818893 81.60629l-81.60629 4.881897l-4.8818893 -81.60631z" fill-rule="evenodd"/><path fill="#71bdff" fill-opacity="0.7595" d="m26.741386 446.23108l81.66929 3.5275574l-3.5275574 81.66928l-81.66929 -3.527588z" fill-rule="evenodd"/><path fill="#71bdff" fill-opacity="0.7595" d="m156.84357 492.97565l75.37009 31.653564l-31.65355 75.370056l-75.37008 -31.653564z" fill-rule="evenodd"/><path fill="#71bdff" fill-opacity="0.7595" d="m861.81287 489.10123l77.4173 26.236237l-26.236206 77.4173l-77.41736 -26.236206z" fill-rule="evenodd"/><path fill="#71bdff" fill-opacity="0.7595" d="m851.41736 312.44537l13.700806 -80.59842l80.59839 13.70079l-13.700806 80.598434z" fill-rule="evenodd"/></g></svg>