<svg version="1.1" viewBox="0.0 0.0 1000.0 600.0" fill="none" stroke="none" stroke-linecap="square" stroke-miterlimit="10" xmlns:xlink="http://www.w3.org/1999/xlink" xmlns="http://www.w3.org/2000/svg"><clipPath id="p.0"><path d="m0 0l1000.0 0l0 600.0l-1000.0 0l0 -600.0z" clip-rule="nonzero"/></clipPath><g clip-path="url(#p.0)"><path fill="#000000" fill-opacity="0.0" d="m0 0l1000.0 0l0 600.0l-1000.0 0z" fill-rule="evenodd"/><path fill="#9fc5e8" d="m-3.1312337 -6.2598424l1000.0 0l0 606.2677l-1000.0 0z" fill-rule="evenodd"/><path fill="#7995ad" d="m69.91338 462.25986l121.039375 0l0 127.3071l-121.039375 0z" fill-rule="evenodd"/><path fill="#7995ad" d="m244.52231 357.9134l121.03937 0l0 231.65356l-121.03937 0z" fill-rule="evenodd"/><path fill="#7995ad" d="m426.958 330.78217l121.03937 0l0 258.77167l-121.03937 0z" fill-rule="evenodd"/><path fill="#7995ad" d="m609.3937 495.6509l121.03937 0l0 93.921295l-121.03937 0z" fill-rule="evenodd"/><path fill="#7995ad" d="m778.78217 406.95538l121.03937 0l0 182.6142l-121.03937 0z" fill-rule="evenodd"/><path fill="#3d85c6" d="m81.3937 401.042l45.228348 0l0 127.30707l-45.228348 0z" fill-rule="evenodd"/><path fill="#3d85c6" d="m167.30708 443.4777l45.228348 0l0 84.88187l-45.228348 0z" fill-rule="evenodd"/><path fill="#3d85c6" d="m258.4357 366.25986l45.228333 0l0 162.1102l-45.228333 0z" fill-rule="evenodd"/><path fill="#3d85c6" d="m336.0 366.25986l45.228333 0l0 162.1102l-45.228333 0z" fill-rule="evenodd"/><path fill="#3d85c6" d="m419.13123 422.60892l45.228363 0l0 105.76376l-45.228363 0z" fill-rule="evenodd"/><path fill="#3d85c6" d="m517.92914 402.7825l45.228333 0l0 127.3071l-45.228333 0z" fill-rule="evenodd"/><path fill="#3d85c6" d="m603.8425 445.2182l45.228333 0l0 84.8819l-45.228333 0z" fill-rule="evenodd"/><path fill="#3d85c6" d="m694.9711 402.80322l45.228333 0l0 127.30707l-45.228333 0z" fill-rule="evenodd"/><path fill="#3d85c6" d="m772.53546 368.00034l45.228333 0l0 162.11026l-45.228333 0z" fill-rule="evenodd"/><path fill="#3d85c6" d="m855.6667 424.34943l45.228333 0l0 105.763794l-45.228333 0z" fill-rule="evenodd"/><path fill="#3d85c6" d="m930.4488 366.25888l45.228394 0l0 162.1102l-45.228394 0z" fill-rule="evenodd"/><path fill="#cfe2f3" d="m175.04414 402.45407l31.842514 0l0 33.039368l-31.842514 0z" fill-rule="evenodd"/><path fill="#cfe2f3" d="m181.48213 365.9134l20.251968 0l0 21.574799l-20.251968 0z" fill-rule="evenodd"/><path fill="#cfe2f3" d="m185.84799 337.44357l11.527557 0l0 12.283447l-11.527557 0z" fill-rule="evenodd"/><path fill="#cfe2f3" d="m88.086136 359.57086l31.842522 0l0 33.039368l-31.842522 0z" fill-rule="evenodd"/><path fill="#cfe2f3" d="m94.524124 323.03018l20.251968 0l0 21.574799l-20.251968 0z" fill-rule="evenodd"/><path fill="#cfe2f3" d="m98.88998 294.56036l11.527565 0l0 12.283478l-11.527565 0z" fill-rule="evenodd"/><path fill="#cfe2f3" d="m265.1286 331.07196l31.84253 0l0 21.070862l-31.84253 0z" fill-rule="evenodd"/><path fill="#cfe2f3" d="m271.5666 307.75192l20.251984 0l0 13.763794l-20.251984 0z" fill-rule="evenodd"/><path fill="#cfe2f3" d="m275.93246 289.58267l11.527557 0l0 7.8425293l-11.527557 0z" fill-rule="evenodd"/><path fill="#cfe2f3" d="m341.2874 331.8843l31.842499 0l0 21.070862l-31.842499 0z" fill-rule="evenodd"/><path fill="#cfe2f3" d="m347.72537 308.56427l20.251984 0l0 13.763763l-20.251984 0z" fill-rule="evenodd"/><path fill="#cfe2f3" d="m352.09125 290.39502l11.527557 0l0 7.842499l-11.527557 0z" fill-rule="evenodd"/><path fill="#cfe2f3" d="m427.03104 373.5735l31.842499 0l0 33.039368l-31.842499 0z" fill-rule="evenodd"/><path fill="#cfe2f3" d="m433.469 337.0328l20.251984 0l0 21.574799l-20.251984 0z" fill-rule="evenodd"/><path fill="#cfe2f3" d="m437.83487 308.563l11.527557 0l0 12.283478l-11.527557 0z" fill-rule="evenodd"/><path fill="#cfe2f3" d="m522.178 359.56955l31.84253 0l0 33.039368l-31.84253 0z" fill-rule="evenodd"/><path fill="#cfe2f3" d="m528.61597 323.02887l20.252014 0l0 21.574799l-20.252014 0z" fill-rule="evenodd"/><path fill="#cfe2f3" d="m532.9819 294.55905l11.527527 0l0 12.283478l-11.527527 0z" fill-rule="evenodd"/><path fill="#cfe2f3" d="m608.5748 413.1781l31.842468 0l0 16.75592l-31.842468 0z" fill-rule="evenodd"/><path fill="#cfe2f3" d="m615.0128 394.64612l20.251953 0l0 10.929138l-20.251953 0z" fill-rule="evenodd"/><path fill="#cfe2f3" d="m619.37866 380.20734l11.527527 0l0 6.2362366l-11.527527 0z" fill-rule="evenodd"/><path fill="#cfe2f3" d="m702.28564 358.40552l31.842468 0l0 33.039368l-31.842468 0z" fill-rule="evenodd"/><path fill="#cfe2f3" d="m708.7236 321.86484l20.252014 0l0 21.574799l-20.252014 0z" fill-rule="evenodd"/><path fill="#cfe2f3" d="m713.0895 293.39502l11.527527 0l0 12.283447l-11.527527 0z" fill-rule="evenodd"/><path fill="#cfe2f3" d="m777.5801 340.31186l31.842468 0l0 17.606323l-31.842468 0z" fill-rule="evenodd"/><path fill="#cfe2f3" d="m784.01807 320.84573l20.251953 0l0 11.496063l-20.251953 0z" fill-rule="evenodd"/><path fill="#cfe2f3" d="m788.3839 305.67917l11.527527 0l0 6.551178l-11.527527 0z" fill-rule="evenodd"/><path fill="#cfe2f3" d="m734.28564 390.40552l31.842468 0l0 33.039368l-31.842468 0z" fill-rule="evenodd"/><path fill="#cfe2f3" d="m740.7236 353.86484l20.252014 0l0 21.574799l-20.252014 0z" fill-rule="evenodd"/><path fill="#cfe2f3" d="m745.0895 325.39502l11.527527 0l0 12.283447l-11.527527 0z" fill-rule="evenodd"/><path fill="#cfe2f3" d="m865.57697 380.6378l31.84253 0l0 33.039368l-31.84253 0z" fill-rule="evenodd"/><path fill="#cfe2f3" d="m872.01495 344.0971l20.251953 0l0 21.574799l-20.251953 0z" fill-rule="evenodd"/><path fill="#cfe2f3" d="m876.3808 315.6273l11.527527 0l0 12.283478l-11.527527 0z" fill-rule="evenodd"/><path fill="#cfe2f3" d="m937.1417 348.81543l31.84253 0l0 9.165344l-31.84253 0z" fill-rule="evenodd"/><path fill="#cfe2f3" d="m943.5797 338.67886l20.251953 0l0 5.984253l-20.251953 0z" fill-rule="evenodd"/><path fill="#cfe2f3" d="m947.94556 330.78122l11.527588 0l0 3.4015808l-11.527588 0z" fill-rule="evenodd"/><path fill="#7995ad" d="m19.014435 149.5601l128.53543 0l0 -113.82677l-128.53543 0z" fill-rule="evenodd"/><path fill="#7995ad" d="m204.45926 242.84796l128.53543 0l0 -207.08661l-128.53543 0z" fill-rule="evenodd"/><path fill="#7995ad" d="m398.21655 267.10385l128.53546 0l0 -231.3386l-128.53546 0z" fill-rule="evenodd"/><path fill="#7995ad" d="m591.9739 119.70781l128.5354 0l0 -83.968506l-128.5354 0z" fill-rule="evenodd"/><path fill="#7995ad" d="m771.87427 199.00342l128.5354 0l0 -163.24408l-128.5354 0z" fill-rule="evenodd"/><path fill="#3d85c6" d="m31.207197 204.29012l48.031494 0l0 -113.826775l-48.031494 0z" fill-rule="evenodd"/><path fill="#3d85c6" d="m122.4522 166.35173l48.0315 0l0 -75.87401l-48.0315 0z" fill-rule="evenodd"/><path fill="#3d85c6" d="m219.23608 235.38606l48.031494 0l0 -144.91339l-48.031494 0z" fill-rule="evenodd"/><path fill="#3d85c6" d="m301.6139 235.38606l48.031494 0l0 -144.91339l-48.031494 0z" fill-rule="evenodd"/><path fill="#3d85c6" d="m389.90408 185.00883l48.031494 0l0 -94.55118l-48.031494 0z" fill-rule="evenodd"/><path fill="#3d85c6" d="m494.8332 202.73407l48.031494 0l0 -113.826775l-48.031494 0z" fill-rule="evenodd"/><path fill="#3d85c6" d="m586.0782 164.7957l48.031494 0l0 -75.87402l-48.031494 0z" fill-rule="evenodd"/><path fill="#3d85c6" d="m682.86206 202.71553l48.031494 0l0 -113.82677l-48.031494 0z" fill-rule="evenodd"/><path fill="#3d85c6" d="m765.23987 233.83002l48.031494 0l0 -144.91339l-48.031494 0z" fill-rule="evenodd"/><path fill="#3d85c6" d="m853.5301 183.45279l48.031494 0l0 -94.55117l-48.031494 0z" fill-rule="evenodd"/><path fill="#3d85c6" d="m932.95306 235.38693l48.031494 0l0 -144.91339l-48.031494 0z" fill-rule="evenodd"/><path fill="#cfe2f3" d="m130.6694 203.0277l33.826782 0l0 -29.54332l-33.826782 0z" fill-rule="evenodd"/><path fill="#cfe2f3" d="m137.50693 235.6958l21.51181 0l0 -19.275589l-21.51181 0z" fill-rule="evenodd"/><path fill="#cfe2f3" d="m142.14372 261.1484l12.251968 0l0 -10.992142l-12.251968 0z" fill-rule="evenodd"/><path fill="#cfe2f3" d="m38.314957 241.36615l33.826767 0l0 -29.54332l-33.826767 0z" fill-rule="evenodd"/><path fill="#cfe2f3" d="m45.15247 274.03427l21.511806 0l0 -19.275604l-21.511806 0z" fill-rule="evenodd"/><path fill="#cfe2f3" d="m49.78926 251.48685l12.251968 0l0 -10.992126l-12.251968 0z" fill-rule="evenodd"/><path fill="#cfe2f3" d="m226.34435 266.84473l33.826767 0l0 -18.834625l-33.826767 0z" fill-rule="evenodd"/><path fill="#cfe2f3" d="m233.18185 287.69333l21.51181 0l0 -12.314972l-21.51181 0z" fill-rule="evenodd"/><path fill="#cfe2f3" d="m237.81865 255.93701l12.251968 0l0 -7.0236206l-12.251968 0z" fill-rule="evenodd"/><path fill="#cfe2f3" d="m307.2294 266.1185l33.826782 0l0 -18.834656l-33.826782 0z" fill-rule="evenodd"/><path fill="#cfe2f3" d="m314.06693 286.96707l21.51181 0l0 -12.314941l-21.51181 0z" fill-rule="evenodd"/><path fill="#cfe2f3" d="m318.7037 255.21077l12.251984 0l0 -7.023636l-12.251984 0z" fill-rule="evenodd"/><path fill="#cfe2f3" d="m398.2941 228.84752l33.826782 0l0 -29.54332l-33.826782 0z" fill-rule="evenodd"/><path fill="#cfe2f3" d="m405.13162 261.51562l21.51181 0l0 -19.275589l-21.51181 0z" fill-rule="evenodd"/><path fill="#cfe2f3" d="m409.7684 286.96823l12.251984 0l0 -10.992126l-12.251984 0z" fill-rule="evenodd"/><path fill="#cfe2f3" d="m499.34573 241.36731l33.82675 0l0 -29.543304l-33.82675 0z" fill-rule="evenodd"/><path fill="#cfe2f3" d="m506.18326 274.03543l21.51181 0l0 -19.275589l-21.51181 0z" fill-rule="evenodd"/><path fill="#cfe2f3" d="m510.82004 251.48802l12.251984 0l0 -10.992126l-12.251984 0z" fill-rule="evenodd"/><path fill="#cfe2f3" d="m591.1041 193.44017l33.826782 0l0 -14.992126l-33.826782 0z" fill-rule="evenodd"/><path fill="#cfe2f3" d="m597.94165 210.00815l21.51184 0l0 -9.763779l-21.51184 0z" fill-rule="evenodd"/><path fill="#cfe2f3" d="m602.5784 222.9167l12.252014 0l0 -5.5747986l-12.252014 0z" fill-rule="evenodd"/><path fill="#cfe2f3" d="m690.6305 242.40799l33.826782 0l0 -29.543304l-33.826782 0z" fill-rule="evenodd"/><path fill="#cfe2f3" d="m697.468 275.0761l21.51178 0l0 -19.275589l-21.51178 0z" fill-rule="evenodd"/><path fill="#cfe2f3" d="m702.1048 252.5287l12.251953 0l0 -10.992126l-12.251953 0z" fill-rule="evenodd"/><path fill="#cfe2f3" d="m770.59753 258.58408l33.826782 0l0 -15.748032l-33.826782 0z" fill-rule="evenodd"/><path fill="#cfe2f3" d="m777.43506 275.98718l21.51184 0l0 -10.2677l-21.51184 0z" fill-rule="evenodd"/><path fill="#cfe2f3" d="m782.07184 241.54642l12.251953 0l0 -5.858261l-12.251953 0z" fill-rule="evenodd"/><path fill="#cfe2f3" d="m724.61633 213.79935l33.826782 0l0 -29.543304l-33.826782 0z" fill-rule="evenodd"/><path fill="#cfe2f3" d="m731.45386 246.46745l21.51178 0l0 -19.275589l-21.51178 0z" fill-rule="evenodd"/><path fill="#cfe2f3" d="m736.09064 271.92004l12.251953 0l0 -10.992126l-12.251953 0z" fill-rule="evenodd"/><path fill="#cfe2f3" d="m864.05536 222.53188l33.826782 0l0 -29.543304l-33.826782 0z" fill-rule="evenodd"/><path fill="#cfe2f3" d="m870.8929 255.2l21.51178 0l0 -19.275589l-21.51178 0z" fill-rule="evenodd"/><path fill="#cfe2f3" d="m875.52966 280.6526l12.251953 0l0 -10.992126l-12.251953 0z" fill-rule="evenodd"/><path fill="#cfe2f3" d="m940.06134 250.98174l33.826782 0l0 -8.18898l-33.826782 0z" fill-rule="evenodd"/><path fill="#cfe2f3" d="m946.8988 260.044l21.51184 0l0 -5.3543243l-21.51184 0z" fill-rule="evenodd"/><path fill="#cfe2f3" d="m951.53564 267.10468l12.251953 0l0 -3.0551147l-12.251953 0z" fill-rule="evenodd"/><defs><linearGradient id="p.1" gradientUnits="userSpaceOnUse" gradientTransform="matrix(25.067861016708136 0.0 0.0 25.067861016708136 0.0 0.0)" spreadMethod="pad" x1="-0.7109916944194589" y1="-0.4942507822299068" x2="-0.7160968696965088" y2="24.57360971463302"><stop offset="0.0" stop-color="#1c4587"/><stop offset="0.23" stop-color="#1c4587"/><stop offset="0.48" stop-color="#1c4587" stop-opacity="0.0"/><stop offset="0.48000002" stop-color="#ffffff" stop-opacity="0.0"/><stop offset="0.74" stop-color="#1c4587" stop-opacity="0.0"/><stop offset="0.93" stop-color="#1c4587"/><stop offset="1.0" stop-color="#1c4587"/></linearGradient></defs><path fill="url(#p.1)" d="m-17.823084 -12.181103l1024.8188 0l0 628.18896l-1024.8188 0z" fill-rule="evenodd"/><path fill="#000000" fill-opacity="0.0" d="m84.65879 32.427822l826.8346 0l0 176.94487l-826.8346 0z" fill-rule="evenodd"/><path fill="#cfe2f3" d="m257.68127 115.667816l0 -18.765625l-20.968735 0l-10.75 -10.75l0 -12.28125l10.75 -10.718746l7.375 0l0 17.781246l22.343735 0l10.390625 10.765625l0 13.265625l-10.71875 10.703125l-8.421875 0zm0 -36.0625l0 -5.015625l-13.35936 0l0 -11.437496l21.749985 0l9.390625 9.437496l0 7.015625l-17.78125 0zm-22.656235 36.0625l-9.0625 -10.765625l0 -6.671875l19.09375 0l0 5.96875l12.39061 0l0 11.46875l-22.42186 0zm81.105606 0l0 -20.34375l-12.390625 0l0 -12.453125l12.265625 0l0 -19.718746l19.25 0l0 52.51562l-19.125 0zm-31.71875 0l0 -52.51562l19.09375 0l0 52.51562l-19.09375 0zm94.79562 0l-2.109375 -5.46875l-17.25 0l4.296875 -12.34375l8.171875 0l-13.40625 -34.70312l18.84375 0l20.9375 52.51562l-19.484375 0zm-39.984375 0l19.625 -52.48437l8.6875 23.312496l-9.578125 29.171875l-18.734375 0zm54.213654 -39.1875l0 -13.328121l45.890625 0l0 13.328121l-45.890625 0zm13.0625 39.1875l0 -39.0l19.765625 0l0 39.0l-19.765625 0zm39.222046 -39.1875l0 -13.328121l45.890625 0l0 13.328121l-45.890625 0zm13.0625 39.1875l0 -39.0l19.765625 0l0 39.0l-19.765625 0zm39.220764 0l0 -52.51562l19.09378 0l0 19.859371l15.96875 0l0 12.078125l-15.96875 0l0 20.578125l-19.09378 0zm29.71878 -35.609375l0 -4.796875l-10.390625 0l0 -12.109371l28.5 0l0 16.906246l-18.109375 0zm-10.390625 35.609375l0 -12.40625l9.40625 0l0 -5.03125l19.09375 0l0 17.4375l-28.5 0zm55.569275 -15.03125l0 -12.109375l12.53125 0l0 -12.953125l-12.53125 0l0 -12.421871l20.765625 0l10.750061 10.718746l0 16.015625l-7.5 7.5l10.03125 18.28125l-20.625061 0l-7.09375 -15.03125l-6.328125 0zm-19.328125 15.03125l0 -52.51562l19.09375 0l0 52.51562l-19.09375 0zm110.244934 0l0 -20.34375l-12.390625 0l0 -12.453125l12.265625 0l0 -19.718746l19.25 0l0 52.51562l-19.125 0zm-31.71875 0l0 -52.51562l19.09375 0l0 52.51562l-19.09375 0zm58.617188 0l0 -13.09375l5.03125 0l0 -26.359375l-5.03125 0l0 -13.062496l29.140625 0l0 13.062496l-5.015625 0l0 26.359375l5.015625 0l0 13.09375l-29.140625 0zm35.267273 -39.1875l0 -13.328121l45.890625 0l0 13.328121l-45.890625 0zm13.0625 39.1875l0 -39.0l19.765625 0l0 39.0l-19.765625 0z" fill-rule="nonzero"/><path fill="#9fc5e8" d="m241.36018 179.02782l2.40625 -11.328125l-12.53125 0l-5.21875 -6.578125l1.578125 -7.390625l7.734375 -6.375l4.578125 0l-2.28125 10.734375l13.359375 0l4.984375 6.609375l-1.6875 7.96875l-7.703125 6.359375l-5.21875 0zm4.625 -21.75l0.640625 -3.03125l-8.0625 0l1.46875 -6.890625l13.015625 0l4.5624847 5.8125l-0.875 4.109375l-10.749985 0zm-18.171875 21.75l-4.1875 -6.609375l0.828125 -3.890625l11.546875 0l-0.765625 3.59375l7.46875 0l-1.46875 6.90625l-13.421875 0zm45.18715 0l3.859375 -18.15625l-4.09375 0l0.84375 -3.953125l4.21875 -3.515625l8.40625 0l2.96875 3.765625l-4.640625 21.859375l-11.5625 0zm-15.78125 0l5.453125 -25.625l11.5625 0l-5.453125 25.625l-11.5625 0zm31.5625 0l3.859375 -18.15625l-4.09375 0l0.828125 -3.90625l4.171875 -3.5625l6.765625 0l4.296875 5.5l-4.28125 20.125l-11.546875 0zm31.709717 0l3.859375 -18.15625l-14.328125 0l0.875 -4.109375l4.0625 -3.359375l15.71875 0l5.171875 6.5625l-4.046875 19.0625l-11.3125 0zm-11.75 0l-3.65625 -4.515625l1.421875 -6.640625l5.328125 -4.359375l11.84375 0l-1.203125 5.625l-5.1875 0l-0.59375 2.796875l5.1875 0l-0.796875 3.78125l-4.046875 3.3125l-8.296875 0zm43.11496 0l1.9375 -9.140625l-10.34375 0l-4.59375 -5.5625l1.09375 -5.171875l7.0 -5.75l5.1875 0l-1.8125 8.53125l10.921875 0l4.546875 5.84375l-1.109375 5.265625l-7.21875 5.984375l-5.609375 0zm3.796875 -17.859375l0.40625 -1.890625l-5.046875 0l1.25 -5.875l11.625 0l3.25 4.125l-0.765625 3.640625l-10.71875 0zm-15.25 17.859375l-3.5 -5.5625l0.59375 -2.796875l11.546875 0l-0.53125 2.484375l4.46875 0l-1.25 5.875l-11.328125 0zm26.926239 0l7.421875 -34.859375l11.53125 0l-7.421875 34.859375l-11.53125 0zm16.09375 0l3.859375 -18.15625l-4.4375 0l0.875 -4.15625l4.0 -3.3125l6.125 0l5.1875 6.5625l-4.046875 19.0625l-11.5625 0zm47.72415 0l2.609375 -12.28125l-7.46875 0l1.609375 -7.5l7.40625 0l2.515625 -11.890625l11.625 0l-6.734375 31.671875l-11.5625 0zm-19.125 0l6.734375 -31.671875l11.53125 0l-6.734375 31.671875l-11.53125 0zm41.284607 -27.203125l1.671875 -7.859375l11.5625 0l-1.671875 7.859375l-11.5625 0zm-5.78125 27.203125l5.453125 -25.625l11.5625 0l-5.453125 25.625l-11.5625 0zm23.71933 0l-5.203125 -6.5625l2.453125 -11.59375l-2.015625 0l1.59375 -7.46875l2.015625 0l0.53125 -2.46875l12.34375 -3.921875l-5.203125 24.546875l6.65625 0l-1.59375 7.46875l-11.578125 0zm8.90625 -18.15625l1.59375 -7.46875l6.890625 0l-1.59375 7.46875l-6.890625 0zm21.892944 21.390625l8.109375 -38.140625l14.2812805 0l-1.59375 7.484375l-3.734375 0l-4.921875 23.15625l3.734375 0l-1.59375 7.5l-14.2812805 0zm33.980072 -3.234375l7.421875 -34.859375l11.53125 0l-7.421875 34.859375l-11.53125 0zm-10.53125 0l-4.703125 -5.96875l2.9375 -13.890625l6.984375 -5.765625l10.640625 0l-1.59375 7.46875l-4.859375 0l-2.34375 11.0625l4.859375 0l-0.921875 4.375l-3.328125 2.71875l-7.671875 0zm25.595947 3.234375l1.59375 -7.5l3.734375 0l4.921875 -23.15625l-3.734375 0l1.59375 -7.484375l14.265625 0l-8.109375 38.140625l-14.265625 0zm23.858276 -3.234375l6.734375 -31.671875l11.53125 0l-2.546875 11.984375l9.640686 0l-1.546875 7.265625l-9.640686 0l-2.640625 12.421875l-11.53125 0zm22.484436 -21.484375l0.625 -2.890625l-6.265686 0l1.546875 -7.296875l17.218811 0l-2.171875 10.1875l-10.953125 0zm-10.828186 21.484375l1.59375 -7.46875l5.671875 0l0.640625 -3.03125l11.546936 0l-2.234375 10.5l-17.218811 0zm28.110046 0l-4.125 -25.625l11.46875 0l3.671875 25.625l-11.015625 0zm11.0625 0.125l-2.109375 -15.125l5.703125 -10.625l11.078125 0l-14.671875 25.75zm16.430054 -0.125l-5.171875 -6.5625l2.6875 -12.703125l7.703125 -6.359375l7.921875 0l-1.59375 7.46875l-2.625 0l-2.34375 11.0625l2.625 0l-1.515625 7.09375l-7.6875 0zm7.8125 0l1.515625 -7.09375l2.5 0l2.34375 -11.0625l-2.5 0l1.59375 -7.46875l7.671875 0l5.171875 6.5625l-2.6875 12.703125l-7.703125 6.359375l-7.90625 0zm24.959839 0l-4.859375 -6.203125l6.09375 -28.65625l11.53125 0l-5.828125 27.390625l4.515625 0l-1.59375 7.46875l-9.859375 0zm17.723389 0l-4.125 -25.625l11.46875 0l3.671875 25.625l-11.015625 0zm11.0625 0.125l-2.109375 -15.125l5.703125 -10.625l11.078125 0l-14.671875 25.75zm16.430054 -0.125l-5.171875 -6.5625l2.6875 -12.703125l7.703125 -6.359375l5.1875 0l-5.453125 25.625l-4.953125 0zm7.140625 -9.703125l1.203125 -5.65625l5.3125 0l0.59375 -2.796875l-5.3125 0l1.59375 -7.46875l9.46875 0l5.171875 6.5625l-1.984375 9.359375l-16.046875 0zm-2.0625 9.703125l1.515625 -7.09375l15.0 0l-0.796875 3.734375l-4.03125 3.359375l-11.6875 0zm36.63452 0l7.421875 -34.859375l11.53125 0l-7.421875 34.859375l-11.53125 0zm-10.53125 0l-4.703125 -5.96875l2.9375 -13.890625l6.984375 -5.765625l10.640625 0l-1.59375 7.46875l-4.859375 0l-2.34375 11.0625l4.859375 0l-0.921875 4.375l-3.328125 2.71875l-7.671875 0z" fill-rule="nonzero"/></g></svg>