<svg version="1.1" viewBox="0.0 0.0 960.0 720.0" fill="none" stroke="none" stroke-linecap="square" stroke-miterlimit="10" xmlns:xlink="http://www.w3.org/1999/xlink" xmlns="http://www.w3.org/2000/svg"><clipPath id="p.0"><path d="m0 0l960.0 0l0 720.0l-960.0 0l0 -720.0z" clip-rule="nonzero"/></clipPath><g clip-path="url(#p.0)"><path fill="#000000" fill-opacity="0.0" d="m0 0l960.0 0l0 720.0l-960.0 0z" fill-rule="evenodd"/><path fill="#ffffff" d="m61.356956 252.94489l812.66144 0l0 214.11023l-812.66144 0z" fill-rule="evenodd"/><path stroke="#0c343d" stroke-width="16.0" stroke-linejoin="round" stroke-linecap="butt" d="m61.356956 252.94489l812.66144 0l0 214.11023l-812.66144 0z" fill-rule="evenodd"/><path fill="#cfe2f3" d="m174.05249 334.01837l546.5827 0l0 -25.984253l51.968506 51.968506l-51.968506 51.968506l0 -25.984253l-546.5827 0z" fill-rule="evenodd"/><path stroke="#000000" stroke-width="1.0" stroke-linejoin="round" stroke-linecap="butt" d="m174.05249 334.01837l546.5827 0l0 -25.984253l51.968506 51.968506l-51.968506 51.968506l0 -25.984253l-546.5827 0z" fill-rule="evenodd"/></g></svg>