<svg version="1.1" viewBox="0.0 0.0 786.0472440944882 234.88451443569554" fill="none" stroke="none" stroke-linecap="square" stroke-miterlimit="10" xmlns:xlink="http://www.w3.org/1999/xlink" xmlns="http://www.w3.org/2000/svg"><clipPath id="p.0"><path d="m0 0l786.04724 0l0 234.88452l-786.04724 0l0 -234.88452z" clip-rule="nonzero"/></clipPath><g clip-path="url(#p.0)"><path fill="#000000" fill-opacity="0.0" d="m0 0l786.04724 0l0 234.88452l-786.04724 0z" fill-rule="evenodd"/><path fill="#000000" fill-opacity="0.0" d="m479.35565 116.7769l244.5669 -0.75590515" fill-rule="evenodd"/><path stroke="#5b0f00" stroke-width="16.0" stroke-linejoin="round" stroke-linecap="butt" d="m479.35565 116.7769l244.5669 -0.75590515" fill-rule="evenodd"/><path fill="#783f04" d="m398.38388 127.17337l53.684967 0l4.677246 4.6772614l0 23.385727l0 0l-53.684937 0l-4.6772766 -4.6772614l0 -23.385727z" fill-rule="evenodd"/><path stroke="#000000" stroke-width="1.0" stroke-linejoin="round" stroke-linecap="butt" d="m398.38388 127.17337l53.684967 0l4.677246 4.6772614l0 23.385727l0 0l-53.684937 0l-4.6772766 -4.6772614l0 -23.385727z" fill-rule="evenodd"/><path fill="#7f6000" d="m88.34646 102.46193l0 27.13913l-15.800514 15.800522l-72.545944 0l0 0l0 -58.740166l0 0l72.545944 0z" fill-rule="evenodd"/><path fill="#000000" fill-opacity="0.0" d="m88.34646 116.031494l115.59055 0" fill-rule="evenodd"/><path stroke="#000000" stroke-width="24.0" stroke-linejoin="round" stroke-linecap="butt" d="m88.34646 116.031494l115.59055 0" fill-rule="evenodd"/><path fill="#7f6000" d="m198.0643 92.39895l281.29135 0l0 48.755913l-281.29135 0z" fill-rule="evenodd"/><path fill="#000000" fill-opacity="0.0" d="m242.71129 99.779526l0 32.503937" fill-rule="evenodd"/><path stroke="#bf9000" stroke-width="12.0" stroke-linejoin="round" stroke-linecap="butt" d="m242.71129 99.779526l0 32.503937" fill-rule="evenodd"/><path fill="#000000" fill-opacity="0.0" d="m266.71127 99.779526l0 32.503937" fill-rule="evenodd"/><path stroke="#bf9000" stroke-width="12.0" stroke-linejoin="round" stroke-linecap="butt" d="m266.71127 99.779526l0 32.503937" fill-rule="evenodd"/><path fill="#000000" fill-opacity="0.0" d="m290.71127 99.779526l0 32.503937" fill-rule="evenodd"/><path stroke="#bf9000" stroke-width="12.0" stroke-linejoin="round" stroke-linecap="butt" d="m290.71127 99.779526l0 32.503937" fill-rule="evenodd"/><path fill="#000000" fill-opacity="0.0" d="m314.71127 99.779526l0 32.503937" fill-rule="evenodd"/><path stroke="#bf9000" stroke-width="12.0" stroke-linejoin="round" stroke-linecap="butt" d="m314.71127 99.779526l0 32.503937" fill-rule="evenodd"/><path fill="#000000" fill-opacity="0.0" d="m338.71127 99.779526l0 32.503937" fill-rule="evenodd"/><path stroke="#bf9000" stroke-width="12.0" stroke-linejoin="round" stroke-linecap="butt" d="m338.71127 99.779526l0 32.503937" fill-rule="evenodd"/><path fill="#000000" fill-opacity="0.0" d="m362.71127 99.779526l0 32.503937" fill-rule="evenodd"/><path stroke="#bf9000" stroke-width="12.0" stroke-linejoin="round" stroke-linecap="butt" d="m362.71127 99.779526l0 32.503937" fill-rule="evenodd"/><path fill="#000000" fill-opacity="0.0" d="m386.71127 99.779526l0 32.503937" fill-rule="evenodd"/><path stroke="#bf9000" stroke-width="12.0" stroke-linejoin="round" stroke-linecap="butt" d="m386.71127 99.779526l0 32.503937" fill-rule="evenodd"/><path fill="#000000" fill-opacity="0.0" d="m410.71127 99.779526l0 32.503937" fill-rule="evenodd"/><path stroke="#bf9000" stroke-width="12.0" stroke-linejoin="round" stroke-linecap="butt" d="m410.71127 99.779526l0 32.503937" fill-rule="evenodd"/><path fill="#000000" fill-opacity="0.0" d="m434.71127 99.779526l0 32.503937" fill-rule="evenodd"/><path stroke="#bf9000" stroke-width="12.0" stroke-linejoin="round" stroke-linecap="butt" d="m434.71127 99.779526l0 32.503937" fill-rule="evenodd"/><path fill="#000000" fill-opacity="0.0" d="m655.03674 108.53281l67.653564 0l0 14.992126l-67.653564 0z" fill-rule="evenodd"/><path stroke="#000000" stroke-width="12.0" stroke-linejoin="round" stroke-linecap="butt" d="m655.03674 108.53281l67.653564 0l0 14.992126l-67.653564 0z" fill-rule="evenodd"/><path fill="#000000" fill-opacity="0.0" d="m276.13873 99.7769l158.5827 0l0 32.503937l-158.5827 0z" fill-rule="evenodd"/><path stroke="#b45f06" stroke-width="8.0" stroke-linejoin="round" stroke-linecap="butt" d="m276.13873 99.7769l158.5827 0l0 32.503937l-158.5827 0z" fill-rule="evenodd"/><path fill="#990000" d="m305.07767 105.64613l98.519684 0l0 20.09449l-98.519684 0z" fill-rule="evenodd"/><path stroke="#000000" stroke-width="1.0" stroke-linejoin="round" stroke-linecap="butt" d="m305.07767 105.64613l98.519684 0l0 20.09449l-98.519684 0z" fill-rule="evenodd"/><path fill="#990000" d="m307.84406 104.716995l0 21.952759l-14.031494 14.031494l-14.031494 0l0 0l0 -50.015747l0 0l14.031494 0z" fill-rule="evenodd"/><path stroke="#000000" stroke-width="1.0" stroke-linejoin="round" stroke-linecap="butt" d="m307.84406 104.716995l0 21.952759l-14.031494 14.031494l-14.031494 0l0 0l0 -50.015747l0 0l14.031494 0z" fill-rule="evenodd"/><path fill="#990000" d="m403.59735 126.669754l0 -21.952759l14.031494 -14.031494l14.031494 0l0 0l0 50.015747l0 0l-14.031494 0z" fill-rule="evenodd"/><path stroke="#000000" stroke-width="1.0" stroke-linejoin="round" stroke-linecap="butt" d="m403.59735 126.669754l0 -21.952759l14.031494 -14.031494l14.031494 0l0 0l0 50.015747l0 0l-14.031494 0z" fill-rule="evenodd"/></g></svg>