<svg version="1.1" viewBox="0.0 0.0 1181.249343832021 275.0" fill="none" stroke="none" stroke-linecap="square" stroke-miterlimit="10" xmlns:xlink="http://www.w3.org/1999/xlink" xmlns="http://www.w3.org/2000/svg"><clipPath id="p.0"><path d="m0 0l1181.2494 0l0 275.0l-1181.2494 0l0 -275.0z" clip-rule="nonzero"/></clipPath><g clip-path="url(#p.0)"><path fill="#000000" fill-opacity="0.0" d="m0 0l1181.2494 0l0 275.0l-1181.2494 0z" fill-rule="evenodd"/><path fill="#000000" fill-opacity="0.0" d="m726.7266 155.97295l134.42517 54.614166" fill-rule="evenodd"/><path stroke="#0c343d" stroke-width="24.0" stroke-linejoin="round" stroke-linecap="butt" d="m726.7266 155.97295l134.42517 54.614166" fill-rule="evenodd"/><path fill="#000000" fill-opacity="0.0" d="m818.47784 193.1847l134.42523 54.61418" fill-rule="evenodd"/><path stroke="#0c343d" stroke-width="12.0" stroke-linejoin="round" stroke-linecap="butt" d="m818.47784 193.1847l134.42523 54.61418" fill-rule="evenodd"/><path fill="#783f04" d="m936.7623 248.50041l0 0c0 9.219254 7.473694 16.692917 16.692932 16.692917l0 0c4.427246 0 8.673157 -1.7586975 11.803711 -4.8892517c3.1304932 -3.1305237 4.889221 -7.376419 4.889221 -11.803665l0 0c0 -9.219238 -7.473694 -16.692902 -16.692932 -16.692902l0 0c-9.219238 0 -16.692932 7.4736633 -16.692932 16.692902z" fill-rule="evenodd"/><path fill="#000000" fill-opacity="0.0" d="m726.7297 116.78071l134.42517 -54.61417" fill-rule="evenodd"/><path stroke="#0c343d" stroke-width="24.0" stroke-linejoin="round" stroke-linecap="butt" d="m726.7297 116.78071l134.42517 -54.61417" fill-rule="evenodd"/><path fill="#000000" fill-opacity="0.0" d="m818.4809 79.56896l134.42523 -54.614174" fill-rule="evenodd"/><path stroke="#0c343d" stroke-width="12.0" stroke-linejoin="round" stroke-linecap="butt" d="m818.4809 79.56896l134.42523 -54.614174" fill-rule="evenodd"/><path fill="#783f04" d="m936.7654 24.253237l0 0c0 -9.219241 7.473694 -16.692913 16.692932 -16.692913l0 0c4.427246 0 8.673157 1.7587123 11.80365 4.8892407c3.1305542 3.1305285 4.889282 7.376437 4.889282 11.803672l0 0c0 9.219244 -7.473694 16.692915 -16.692932 16.692915l0 0c-9.219238 0 -16.692932 -7.473671 -16.692932 -16.692915z" fill-rule="evenodd"/><path fill="#666666" d="m553.33594 63.742783l115.62207 0l0 33.385826l-115.62207 0z" fill-rule="evenodd"/><path stroke="#000000" stroke-width="1.0" stroke-linejoin="round" stroke-linecap="butt" d="m553.33594 63.742783l115.62207 0l0 33.385826l-115.62207 0z" fill-rule="evenodd"/><path fill="#0c343d" d="m346.24933 59.383587l0 0c0 -33.827293 27.422455 -61.24973 61.249756 -61.24973l76.24069 0l0 0c16.244446 0 31.823517 6.453078 43.31009 17.93963c11.486572 11.486553 17.939636 27.06566 17.939636 43.310097l0 152.49266c0 33.8273 -27.422424 61.249725 -61.249725 61.249725l-76.24069 0c-33.8273 0 -61.249756 -27.422424 -61.249756 -61.249725z" fill-rule="evenodd"/><path stroke="#000000" stroke-width="1.0" stroke-linejoin="round" stroke-linecap="butt" d="m346.24933 59.383587l0 0c0 -33.827293 27.422455 -61.24973 61.249756 -61.24973l76.24069 0l0 0c16.244446 0 31.823517 6.453078 43.31009 17.93963c11.486572 11.486553 17.939636 27.06566 17.939636 43.310097l0 152.49266c0 33.8273 -27.422424 61.249725 -61.249725 61.249725l-76.24069 0c-33.8273 0 -61.249756 -27.422424 -61.249756 -61.249725z" fill-rule="evenodd"/><path fill="#274e13" d="m363.73752 60.475212l0 0c0 -27.87669 22.598541 -50.475212 50.47522 -50.475212l62.8291 0l0 0c13.386871 0 26.225433 5.3179092 35.691376 14.783848c9.465942 9.465939 14.7838745 22.304504 14.7838745 35.691364l0 150.32516c0 27.876678 -22.598541 50.47522 -50.47525 50.47522l-62.8291 0l0 0c-27.876678 0 -50.47522 -22.598541 -50.47522 -50.47522z" fill-rule="evenodd"/><path stroke="#000000" stroke-width="1.0" stroke-linejoin="round" stroke-linecap="butt" d="m363.73752 60.475212l0 0c0 -27.87669 22.598541 -50.475212 50.47522 -50.475212l62.8291 0l0 0c13.386871 0 26.225433 5.3179092 35.691376 14.783848c9.465942 9.465939 14.7838745 22.304504 14.7838745 35.691364l0 150.32516c0 27.876678 -22.598541 50.47522 -50.47525 50.47522l-62.8291 0l0 0c-27.876678 0 -50.47522 -22.598541 -50.47522 -50.47522z" fill-rule="evenodd"/><path fill="#434343" d="m0.0131233595 105.0l783.74805 0l0 61.259842l-783.74805 0z" fill-rule="evenodd"/><path fill="#783f04" d="m202.50131 81.85767l0 107.54449l-85.59783 85.59784l-116.89036 0l0 0l0 -278.74014l0 0l116.89036 0z" fill-rule="evenodd"/><path fill="#000000" fill-opacity="0.0" d="m133.52493 135.0l650.2362 0.6299286" fill-rule="evenodd"/><path stroke="#666666" stroke-width="12.0" stroke-linejoin="round" stroke-linecap="butt" d="m133.52493 135.0l650.2362 0.6299286" fill-rule="evenodd"/><path fill="#7f6000" d="m461.43024 102.53661l0 0c12.042969 0 21.805725 1.7060165 21.805725 3.8104935l0 0c0 1.0106049 -2.2973938 1.9798126 -6.3867493 2.6944199c-4.089386 0.71460724 -9.635742 1.116066 -15.418976 1.116066l0 0c-12.042969 0 -21.805725 -1.7060165 -21.805725 -3.8104858l0 0c0 -1.0106049 2.2973938 -1.9798203 6.3867493 -2.6944275c4.0893555 -0.7145996 9.635742 -1.116066 15.418976 -1.116066z" fill-rule="evenodd"/><path fill="#f1c232" d="m461.25967 102.33974l0 8.020393l-4.7414856 4.7414856l-56.735138 0l0 0l0 -17.503372l0 0l56.735138 0z" fill-rule="evenodd"/><path fill="#000000" fill-opacity="0.0" d="m405.24908 97.699066l0 17.786049" fill-rule="evenodd"/><path stroke="#7f6000" stroke-width="8.0" stroke-linejoin="round" stroke-linecap="butt" d="m405.24908 97.699066l0 17.786049" fill-rule="evenodd"/><path fill="#b7b7b7" d="m446.73828 115.74799l0 7.9370117l-34.4252 0l0 -7.9370117z" fill-rule="evenodd"/><path fill="#b7b7b7" d="m434.59656 108.45666l0 22.519676l-10.141754 0l0 -22.519676z" fill-rule="evenodd"/><path fill="#7f6000" d="m461.43024 74.71309l0 0c12.042969 0 21.805725 1.7060089 21.805725 3.8104858l0 0c0 1.0106049 -2.2973938 1.9798203 -6.3867493 2.6944199c-4.089386 0.71460724 -9.635742 1.116066 -15.418976 1.116066l0 0c-12.042969 0 -21.805725 -1.7060089 -21.805725 -3.8104858l0 0c0 -1.0106049 2.2973938 -1.9798126 6.3867493 -2.6944199c4.0893555 -0.71460724 9.635742 -1.116066 15.418976 -1.116066z" fill-rule="evenodd"/><path fill="#f1c232" d="m461.25967 74.516205l0 8.020393l-4.7414856 4.7414856l-56.735138 0l0 0l0 -17.503365l0 0l56.735138 0z" fill-rule="evenodd"/><path fill="#000000" fill-opacity="0.0" d="m405.24908 69.87554l0 17.786041" fill-rule="evenodd"/><path stroke="#7f6000" stroke-width="8.0" stroke-linejoin="round" stroke-linecap="butt" d="m405.24908 69.87554l0 17.786041" fill-rule="evenodd"/><path fill="#b7b7b7" d="m446.73828 87.92447l0 7.937004l-34.4252 0l0 -7.937004z" fill-rule="evenodd"/><path fill="#b7b7b7" d="m434.59656 80.633125l0 22.519684l-10.141754 0l0 -22.519684z" fill-rule="evenodd"/><path fill="#7f6000" d="m461.39966 47.890175l0 0c12.042969 0 21.805725 1.7060165 21.805725 3.8104897l0 0c0 1.0106049 -2.2973938 1.9798164 -6.3867493 2.6944199c-4.0893555 0.71460724 -9.635742 1.116066 -15.418976 1.116066l0 0c-12.042969 0 -21.805725 -1.7060127 -21.805725 -3.8104858l0 0c0 -1.0106049 2.2973938 -1.9798164 6.3867493 -2.6944237c4.089386 -0.7146034 9.635742 -1.116066 15.418976 -1.116066z" fill-rule="evenodd"/><path fill="#f1c232" d="m461.22913 47.693295l0 8.020393l-4.7414856 4.7414894l-56.73517 0l0 0l0 -17.503372l0 0l56.73517 0z" fill-rule="evenodd"/><path fill="#000000" fill-opacity="0.0" d="m405.2185 43.052628l0 17.786045" fill-rule="evenodd"/><path stroke="#7f6000" stroke-width="8.0" stroke-linejoin="round" stroke-linecap="butt" d="m405.2185 43.052628l0 17.786045" fill-rule="evenodd"/><path fill="#b7b7b7" d="m446.7077 61.101555l0 7.937004l-34.4252 0l0 -7.937004z" fill-rule="evenodd"/><path fill="#b7b7b7" d="m434.56598 53.810215l0 22.519688l-10.141724 0l0 -22.519688z" fill-rule="evenodd"/><path fill="#7f6000" d="m461.66476 21.066029l0 0c12.042969 0 21.805695 1.7060146 21.805695 3.8104877l0 0c0 1.0106049 -2.2973633 1.9798183 -6.3867493 2.6944237c-4.0893555 0.7146034 -9.635712 1.116066 -15.418945 1.116066l0 0c-12.042969 0 -21.805725 -1.7060146 -21.805725 -3.8104897l0 0c0 -1.010603 2.2973938 -1.9798164 6.3867493 -2.6944218c4.0893555 -0.71460533 9.635742 -1.116066 15.418976 -1.116066z" fill-rule="evenodd"/><path fill="#f1c232" d="m461.4942 20.869146l0 8.020395l-4.7414856 4.7414856l-56.735138 0l0 0l0 -17.503368l0 0l56.735138 0z" fill-rule="evenodd"/><path fill="#000000" fill-opacity="0.0" d="m405.4836 16.22848l0 17.786047" fill-rule="evenodd"/><path stroke="#7f6000" stroke-width="8.0" stroke-linejoin="round" stroke-linecap="butt" d="m405.4836 16.22848l0 17.786047" fill-rule="evenodd"/><path fill="#b7b7b7" d="m446.9728 34.27741l0 7.937008l-34.4252 0l0 -7.937008z" fill-rule="evenodd"/><path fill="#b7b7b7" d="m434.83105 26.986069l0 22.519684l-10.141724 0l0 -22.519684z" fill-rule="evenodd"/><path fill="#000000" fill-opacity="0.0" d="m705.2493 127.50131l-35.0 -46.25197l-111.24933 0" fill-rule="evenodd"/><path stroke="#000000" stroke-width="16.0" stroke-linejoin="round" stroke-linecap="butt" d="m705.2493 127.50131l-35.0 -46.25197l-111.24933 0" fill-rule="evenodd"/><path fill="#000000" d="m501.24933 141.24934l159.71655 0l0 25.007874l-159.71655 0z" fill-rule="evenodd"/><path stroke="#000000" stroke-width="1.0" stroke-linejoin="round" stroke-linecap="butt" d="m501.24933 141.24934l159.71655 0l0 25.007874l-159.71655 0z" fill-rule="evenodd"/><path fill="#000000" d="m799.0 114.65856l38.740173 0l0 39.433067l-38.740173 0z" fill-rule="evenodd"/><path fill="#000000" fill-opacity="0.0" d="m783.76117 135.62993l352.378 0" fill-rule="evenodd"/><path stroke="#000000" stroke-width="16.0" stroke-linejoin="round" stroke-linecap="butt" d="m783.76117 135.62993l352.378 0" fill-rule="evenodd"/><path fill="#000000" d="m847.0 114.65856l38.740173 0l0 39.433067l-38.740173 0z" fill-rule="evenodd"/><path fill="#000000" d="m895.0 114.65856l38.740173 0l0 39.433067l-38.740173 0z" fill-rule="evenodd"/><path fill="#000000" d="m943.0 114.65856l38.740173 0l0 39.433067l-38.740173 0z" fill-rule="evenodd"/><path fill="#000000" d="m991.0 114.65856l38.740112 0l0 39.433067l-38.740112 0z" fill-rule="evenodd"/><path fill="#000000" d="m1039.0 114.65856l38.740112 0l0 39.433067l-38.740112 0z" fill-rule="evenodd"/><path fill="#000000" d="m1087.0 114.65856l38.740112 0l0 39.433067l-38.740112 0z" fill-rule="evenodd"/></g></svg>