<svg version="1.1" viewBox="0.0 0.0 377.9527559055118 377.9527559055118" fill="none" stroke="none" stroke-linecap="square" stroke-miterlimit="10" xmlns:xlink="http://www.w3.org/1999/xlink" xmlns="http://www.w3.org/2000/svg"><clipPath id="p.0"><path d="m0 0l377.95276 0l0 377.95276l-377.95276 0l0 -377.95276z" clip-rule="nonzero"/></clipPath><g clip-path="url(#p.0)"><path fill="#000000" fill-opacity="0.0" d="m0 0l377.95276 0l0 377.95276l-377.95276 0z" fill-rule="evenodd"/><path fill="#7f6000" d="m36.591667 173.53581l0 0c-0.14665604 -36.445007 14.158432 -71.44788 39.752884 -97.27066c25.594452 -25.82277 60.370277 -40.338642 96.6397 -40.338642l0 137.05511z" fill-rule="evenodd"/><path fill="#7f6000" d="m204.74062 35.926727l0 0c75.15495 -0.13489532 136.25706 60.846016 136.6356 136.3646l-136.39197 0.6903076z" fill-rule="evenodd"/><path fill="#7f6000" d="m341.3709 203.58913l0 0c0.36947632 36.54077 -13.798462 71.71675 -39.35623 97.71315c-25.5578 25.99643 -60.38887 40.66043 -96.7551 40.73419l-0.2753296 -137.05484z" fill-rule="evenodd"/><path fill="#7f6000" d="m173.74736 342.0346l0 0c-36.26982 0.20391846 -71.12676 -14.117004 -96.86475 -39.79666c-25.737995 -25.679688 -40.237103 -60.603027 -40.2919 -97.049255l136.39355 -0.20706177z" fill-rule="evenodd"/><path fill="#666666" d="m62.454067 188.99475l0 0c0 -69.88359 56.651844 -126.53543 126.53543 -126.53543l0 0c33.55928 0 65.744064 13.331371 89.47406 37.061375c23.730011 23.729996 37.06137 55.91478 37.06137 89.47406l0 0c0 69.883575 -56.651855 126.53543 -126.53543 126.53543l0 0c-69.88359 0 -126.53543 -56.651855 -126.53543 -126.53543z" fill-rule="evenodd"/><path stroke="#000000" stroke-width="12.0" stroke-linejoin="round" stroke-linecap="butt" d="m62.454067 188.99475l0 0c0 -69.88359 56.651844 -126.53543 126.53543 -126.53543l0 0c33.55928 0 65.744064 13.331371 89.47406 37.061375c23.730011 23.729996 37.06137 55.91478 37.06137 89.47406l0 0c0 69.883575 -56.651855 126.53543 -126.53543 126.53543l0 0c-69.88359 0 -126.53543 -56.651855 -126.53543 -126.53543z" fill-rule="evenodd"/><path fill="#00ffff" d="m105.826775 189.62993l67.3617 -15.51181l14.465073 -72.23623l14.465057 72.23623l67.36171 15.51181l-67.36171 15.511795l-14.465057 72.23624l-14.465073 -72.23624z" fill-rule="evenodd"/><path stroke="#000000" stroke-width="1.0" stroke-linejoin="round" stroke-linecap="butt" d="m105.826775 189.62993l67.3617 -15.51181l14.465073 -72.23623l14.465057 72.23623l67.36171 15.51181l-67.36171 15.511795l-14.465057 72.23624l-14.465073 -72.23624z" fill-rule="evenodd"/></g></svg>